<svg version="1.1" id="Layer_1" xmlns="http://www.w3.org/2000/svg" xmlns:xlink="http://www.w3.org/1999/xlink" x="0px" y="0px"
	 width="100%" viewBox="0 0 984 407" enable-background="new 0 0 984 407" xml:space="preserve">
<path fill="#FFFFFF" opacity="1.000000" stroke="none" 
	d="
M633.000000,408.000000 
	C422.000000,408.000000 211.500000,408.000000 1.000000,408.000000 
	C1.000000,272.333344 1.000000,136.666672 1.000000,1.000000 
	C329.000000,1.000000 657.000000,1.000000 985.000000,1.000000 
	C985.000000,136.666672 985.000000,272.333344 985.000000,408.000000 
	C867.833313,408.000000 750.666687,408.000000 633.000000,408.000000 
M739.031311,354.608368 
	C739.335510,354.788330 739.639709,354.968292 740.087830,355.621887 
	C740.302368,355.916718 740.591309,356.048645 741.235413,356.588806 
	C742.135437,357.116943 743.035522,357.645081 744.277344,358.714569 
	C745.450012,359.167358 746.622620,359.620178 748.360779,360.639709 
	C762.145325,365.703796 778.086426,358.896759 783.135498,345.392487 
	C784.529236,341.664825 785.057678,337.432037 785.115234,333.418610 
	C785.336304,318.004974 785.204773,302.586304 785.204773,286.579041 
	C786.367920,287.312225 787.004272,287.713318 787.900940,288.703674 
	C788.229858,288.970398 788.558838,289.237122 788.827209,289.806061 
	C788.827209,289.806061 789.060730,290.007233 789.080139,290.546875 
	C789.372192,290.740906 789.664307,290.934906 790.078552,291.587769 
	C790.261841,291.882782 790.527039,292.034821 791.146545,292.674622 
	C797.864380,298.379883 804.728333,303.816498 814.221008,305.730499 
	C832.761841,312.516266 851.286804,311.053894 869.437256,304.671936 
	C920.427612,286.742920 950.285522,230.136688 936.527954,177.959213 
	C932.041931,160.945694 923.754822,145.746979 912.159729,132.697540 
	C906.420959,126.239090 898.839478,121.418053 892.062439,115.940887 
	C892.062439,115.940887 892.150940,115.926231 891.972473,115.413902 
	C891.664795,115.238632 891.357056,115.063354 891.032471,114.966713 
	C891.032471,114.966713 891.111145,114.950058 890.942383,114.411766 
	C890.648071,114.212502 890.353760,114.013229 889.860718,113.368118 
	C889.415161,113.202293 888.969666,113.036461 888.182922,112.343590 
	C887.796570,112.207848 887.410156,112.072113 887.013794,112.001846 
	C887.013794,112.001846 887.063904,111.958542 886.734009,111.446159 
	C886.179993,111.213089 885.626038,110.980019 884.630127,110.180046 
	C880.753418,108.493225 876.876770,106.806396 872.562866,104.997726 
	C872.562866,104.997726 872.110596,104.959694 871.755249,104.262177 
	C867.171143,103.223770 862.586975,102.185364 857.602722,100.970261 
	C857.602722,100.970261 857.166443,100.938583 856.804504,100.211861 
	C855.228088,100.099403 853.651672,99.986938 852.023743,99.963371 
	C852.023743,99.963371 852.116699,99.919563 851.767761,99.230034 
	C850.504089,99.127365 849.240479,99.024689 847.217896,98.610847 
	C831.993103,97.422264 817.532593,99.354202 804.993530,109.003426 
	C804.993530,109.003426 804.972656,108.949951 804.420044,109.051392 
	C804.199097,109.341408 803.978149,109.631424 803.109497,110.128189 
	C797.283203,116.831596 791.456909,123.534996 785.610168,130.261902 
	C784.627258,122.885521 783.100708,115.188812 777.009033,108.686813 
	C767.845337,100.630859 757.481934,98.769691 746.468994,103.869133 
	C736.430664,108.517250 731.000427,116.641449 730.995667,128.950653 
	C730.975220,196.960983 730.953125,264.971313 730.946106,332.981659 
	C730.945984,334.303833 731.123352,335.626038 731.106384,337.731415 
	C732.392578,341.491669 733.678833,345.251923 735.023926,349.620911 
	C735.308838,349.898102 735.593750,350.175293 735.941223,351.022034 
	C736.572632,351.699585 737.204041,352.377136 738.004211,353.588684 
	C738.313660,353.779083 738.623108,353.969482 738.967834,354.080170 
	C738.967834,354.080170 738.880859,354.086334 739.031311,354.608368 
M567.882263,103.733009 
	C567.882263,103.733009 567.832764,103.585846 567.075562,103.632690 
	C566.179688,104.046127 565.283813,104.459557 564.174927,104.782089 
	C564.174927,104.782089 564.012024,104.946663 563.316101,104.957047 
	C562.711609,105.264214 562.107117,105.571381 560.794739,105.889145 
	C556.952454,107.662979 552.993164,109.222618 549.287903,111.247192 
	C531.918335,120.738068 518.457520,134.849564 504.415161,149.245239 
	C499.614349,153.916214 494.813507,158.587173 489.278168,163.247650 
	C483.901520,158.468399 478.524841,153.689148 473.006073,148.238480 
	C453.697662,125.874374 431.353821,108.059082 401.296082,100.474625 
	C396.835205,99.729996 392.374359,98.985374 387.001038,98.072525 
	C375.413269,98.726898 363.530731,97.966095 352.294250,100.306870 
	C321.332581,106.756783 297.462616,123.785881 281.408234,152.156036 
	C281.235107,152.753235 281.061981,153.350433 280.879852,153.871902 
	C280.879852,153.871902 280.807617,153.847473 280.228424,154.224991 
	C268.170074,176.233170 265.351166,199.730408 269.608551,224.133514 
	C273.836884,248.369995 285.378357,268.766785 304.245575,284.568390 
	C310.875916,290.121399 318.750153,294.189178 326.498444,299.464050 
	C333.817719,302.011383 341.136993,304.558716 349.015289,307.649323 
	C350.020935,307.788147 351.026581,307.927002 352.444153,308.294342 
	C352.444153,308.294342 352.898315,308.395660 352.898315,308.395660 
	C352.898315,308.395660 353.357025,308.318146 354.053772,308.758972 
	C389.552948,315.913147 421.259430,306.917145 448.714050,284.332062 
	C463.167145,272.442444 475.629913,258.133331 489.630157,245.152908 
	C497.692657,253.120270 505.755157,261.087616 514.094971,269.676392 
	C531.369873,287.866760 551.180908,301.933899 576.805359,308.055359 
	C582.026123,308.916748 587.217773,310.102264 592.473511,310.573914 
	C604.426453,311.646423 616.351318,311.563019 628.767761,308.105499 
	C629.715027,307.776062 630.662292,307.446625 632.096252,307.249664 
	C632.403748,307.123596 632.711304,306.997559 633.678772,306.915527 
	C634.022278,306.671875 634.365845,306.428223 634.833252,306.303314 
	C634.833252,306.303314 634.992859,306.240173 635.795654,306.224609 
	C637.184631,305.775116 638.594604,305.381378 639.959412,304.867676 
	C660.698486,297.061737 678.504517,285.338531 691.499939,266.931763 
	C705.022644,247.778168 710.972656,226.333450 711.082581,203.160034 
	C711.155945,187.697586 708.218018,172.797058 701.001831,158.979279 
	C701.001831,158.979279 701.080627,158.954071 701.035645,158.255264 
	C700.066223,156.447617 699.096802,154.639984 698.092163,152.929382 
	C698.092163,152.929382 698.195374,152.928558 698.112061,152.330856 
	C697.755432,151.863831 697.398743,151.396820 696.995544,150.981461 
	C696.995544,150.981461 697.062988,150.964844 696.962646,150.284439 
	C695.423706,148.077759 693.884766,145.871078 692.158020,143.783676 
	C692.158020,143.783676 692.373962,143.729858 692.132751,143.201111 
	C691.783752,143.040359 691.434692,142.879608 691.139282,142.017151 
	C685.278015,135.593033 679.527771,129.061584 673.484497,122.813522 
	C671.783447,121.054855 669.222839,120.127548 666.758484,118.195152 
	C661.869873,115.113716 656.981323,112.032280 651.634827,108.417946 
	C629.743774,98.062210 606.929565,94.859741 582.550232,99.505653 
	C582.028992,99.699669 581.507690,99.893692 580.211731,100.005928 
	C578.257263,100.621323 576.302795,101.236717 573.896118,101.630730 
	C573.595459,101.766228 573.294739,101.901726 572.266418,101.968391 
	C571.632019,102.266815 570.997559,102.565239 570.201660,102.760193 
	C570.201660,102.760193 570.043213,102.868309 569.394348,102.865265 
	C568.839783,103.143257 568.285278,103.421249 567.882263,103.733009 
M90.984840,214.807907 
	C91.035103,215.854767 91.085373,216.901611 91.073486,218.768372 
	C91.433540,221.191742 91.793594,223.615112 92.240295,226.529068 
	C92.460083,226.774689 92.679871,227.020294 92.864372,228.093338 
	C95.008621,244.044037 101.569504,258.191284 111.399147,270.681610 
	C116.137596,276.702728 122.184097,281.694397 127.899109,287.792755 
	C142.418716,301.138672 160.047775,308.175232 179.206543,309.645172 
	C198.034363,311.089752 217.062576,310.396027 235.986893,309.955109 
	C250.413422,309.619049 262.205566,293.473511 259.623444,279.267242 
	C257.241760,266.163544 246.165680,255.472870 231.140320,255.805878 
	C216.028198,256.140808 200.845215,256.058929 185.777939,254.978790 
	C163.745529,253.399338 146.732071,236.066544 145.969742,212.075165 
	C145.972382,169.003342 145.995285,125.931480 145.933228,82.859749 
	C145.928986,79.908463 145.288696,76.958092 144.926849,73.281883 
	C141.970535,68.801353 139.014221,64.320824 135.966553,59.159252 
	C135.600037,58.626392 135.345139,57.938107 134.850845,57.583149 
	C117.572685,45.175331 93.504257,55.901485 91.015076,77.983955 
	C91.021164,120.984184 91.027260,163.984406 90.964935,207.864044 
	C90.997711,209.917191 91.030495,211.970352 90.984840,214.807907 
z"/>
<path fill="#294385" opacity="1.000000" stroke="none" 
	d="
M667.056519,118.818932 
	C669.222839,120.127548 671.783447,121.054855 673.484497,122.813522 
	C679.527771,129.061584 685.278015,135.593033 691.220703,142.650085 
	C691.659363,143.431976 692.016663,143.580917 692.373962,143.729858 
	C692.373962,143.729858 692.158020,143.783676 692.144409,144.166412 
	C691.682434,148.296295 691.737366,151.656570 697.062988,150.964844 
	C697.062988,150.964844 696.995544,150.981461 697.035522,151.272461 
	C697.448792,152.018494 697.822083,152.473526 698.195374,152.928558 
	C698.195374,152.928558 698.092163,152.929382 698.071045,153.314453 
	C698.345764,155.863083 696.656738,159.171494 701.080627,158.954071 
	C701.080627,158.954071 701.001831,158.979279 701.014160,159.360443 
	C701.019714,165.547867 700.947937,171.355270 701.051819,177.159531 
	C701.077820,178.612366 701.562561,180.089706 702.019958,181.496094 
	C703.523621,186.119247 706.491882,190.751266 706.372070,195.313538 
	C706.142090,204.067383 704.525330,212.845337 702.793884,221.474838 
	C701.863403,226.112228 699.397644,230.105392 693.184021,229.141785 
	C691.760376,228.921021 689.389648,230.036255 688.618958,231.266113 
	C686.257385,235.034790 683.783325,238.971848 682.624207,243.192520 
	C681.290710,248.048172 679.123657,251.018845 674.107910,252.256866 
	C671.404541,252.924118 669.691589,255.127533 672.396912,257.825989 
	C675.696655,261.117401 674.871582,263.872864 671.830139,266.697632 
	C669.171692,269.166748 666.200317,271.482849 666.868835,275.865234 
	C666.959045,276.456879 665.836914,277.253143 665.242981,277.925446 
	C663.821411,279.534760 662.104797,280.957001 660.995667,282.755890 
	C656.814636,289.537048 652.977173,296.282959 643.627930,297.215057 
	C638.875366,297.688934 636.200928,301.616211 634.992859,306.240173 
	C634.992859,306.240173 634.833252,306.303314 634.449219,306.249512 
	C633.716370,306.420959 633.367615,306.646240 633.018799,306.871521 
	C632.711304,306.997559 632.403748,307.123596 631.452332,307.161438 
	C629.870850,307.385101 628.933350,307.696991 627.995789,308.008850 
	C616.351318,311.563019 604.426453,311.646423 592.473511,310.573914 
	C587.217773,310.102264 582.026123,308.916748 576.659058,307.674377 
	C578.453247,306.450256 580.364136,305.529633 582.339539,304.778351 
	C588.486450,302.440399 595.396545,300.968658 595.722595,292.362885 
	C595.791626,290.541534 595.762390,288.700287 596.031494,286.906128 
	C596.541504,283.505768 596.076050,278.608734 598.097656,277.071869 
	C602.073608,274.049225 602.816956,269.789276 604.860291,266.048920 
	C605.463745,264.944275 605.146179,263.336456 605.250671,261.959229 
	C603.930237,262.022705 602.609558,262.082489 601.289368,262.150696 
	C599.896606,262.222595 598.332153,262.744537 597.148743,262.283783 
	C594.922363,261.416962 592.787415,260.154724 590.878479,258.708374 
	C590.064453,258.091614 589.913635,256.599518 589.866821,255.541199 
	C595.559692,256.057587 600.853760,257.014252 606.133362,256.939819 
	C636.466797,256.511993 660.642883,226.708344 655.512512,196.810287 
	C653.365417,184.297836 647.299072,174.158005 639.383423,165.037506 
	C645.513062,164.898254 650.606934,165.413300 654.118347,171.173019 
	C656.284302,174.725754 661.338318,173.165024 663.168091,169.238953 
	C666.037476,163.082504 668.184021,156.631042 675.813171,153.799988 
	C680.620728,152.015961 686.361755,147.768494 683.652954,141.823151 
	C680.986389,135.970718 676.254700,130.394836 671.042542,126.604095 
	C667.663147,124.146301 666.790833,122.255577 667.056519,118.818932 
z"/>
<path fill="#233272" opacity="1.000000" stroke="none" 
	d="
M888.524109,112.870628 
	C888.969666,113.036461 889.415161,113.202293 890.052734,113.847313 
	C890.533569,114.534355 890.822327,114.742210 891.111145,114.950058 
	C891.111145,114.950058 891.032471,114.966713 891.145630,115.173431 
	C891.556213,115.562172 891.853577,115.744209 892.150940,115.926239 
	C892.150940,115.926231 892.062439,115.940887 892.056030,116.274399 
	C892.331360,117.346207 892.394775,118.365585 892.928162,118.779747 
	C898.887024,123.407066 903.343689,128.641129 902.150391,136.999725 
	C901.966980,138.284317 903.477600,140.773315 904.667786,141.121109 
	C909.272156,142.466568 911.239807,145.957993 912.895569,149.829575 
	C914.030396,152.482819 915.427063,154.259399 918.759094,154.187057 
	C919.807312,154.164291 921.506409,155.879990 921.842957,157.094849 
	C922.583313,159.768204 922.911011,162.633347 922.870789,165.412460 
	C922.850891,166.784943 921.967957,168.607941 920.876892,169.370682 
	C919.801758,170.122253 917.890503,170.160324 916.487793,169.856766 
	C913.861755,169.288467 911.378235,168.059921 908.751587,167.497406 
	C907.742310,167.281250 906.504028,168.134354 905.370056,168.500244 
	C905.751282,169.667542 905.816956,171.549286 906.567322,171.880707 
	C910.170349,173.472107 912.580200,177.918060 917.703979,176.244598 
	C919.039185,175.808517 921.568420,177.199493 922.655640,178.498993 
	C923.339966,179.316788 922.931946,182.159241 922.015869,182.981476 
	C919.902283,184.878479 917.259583,187.188675 914.689575,187.375183 
	C908.455261,187.827621 907.791138,192.172012 906.115601,196.613556 
	C902.670593,205.745850 896.902588,214.028732 896.359619,224.203506 
	C896.214600,226.919983 895.786865,229.621277 895.639343,232.337723 
	C895.461731,235.609467 896.649048,239.686050 895.115417,242.006317 
	C891.561401,247.383530 886.789673,251.972565 882.384705,256.764465 
	C879.764465,259.614807 875.790833,261.775177 874.400208,265.077271 
	C872.066895,270.618042 871.647888,276.930359 869.802246,282.720032 
	C867.534973,289.832458 864.814880,296.822968 856.550293,299.402466 
	C854.891663,299.920135 853.672119,301.825928 852.013733,302.366913 
	C849.028381,303.340790 845.879333,304.233124 842.771912,304.333984 
	C833.146057,304.646576 823.423706,300.675629 813.882568,305.043030 
	C804.728333,303.816498 797.864380,298.379883 791.391235,292.342957 
	C797.023926,288.016541 801.379944,289.809601 805.627441,294.138275 
	C806.741455,295.273560 808.980469,295.910950 810.634094,295.795258 
	C815.290527,295.469482 819.927307,294.731750 824.542419,293.976440 
	C833.259094,292.549835 835.696228,289.264404 836.106018,280.244232 
	C836.294067,276.106201 837.652100,272.025543 838.408386,267.905823 
	C838.575012,266.998077 838.712341,265.929932 838.397644,265.115448 
	C836.971680,261.423920 834.801941,258.667877 830.440857,257.922333 
	C828.521484,257.594208 826.830139,255.932648 825.502075,254.867493 
	C832.392578,254.670227 839.085815,255.589859 845.193726,254.103714 
	C872.973267,247.344635 887.243896,223.661133 883.882324,197.061539 
	C881.427063,177.633850 867.378662,159.656631 848.468689,154.769012 
	C837.036255,151.814087 826.062012,152.878677 815.039185,155.574432 
	C817.990356,153.342682 820.672668,150.664734 823.862122,149.744141 
	C829.816772,148.025452 836.041321,147.155426 842.201904,146.268127 
	C846.028870,145.716949 849.951416,145.864197 853.818237,145.542801 
	C856.220154,145.343170 858.606140,144.899658 860.984070,144.479248 
	C862.902588,144.140060 864.798340,143.671555 866.704163,143.260406 
	C866.024292,140.782257 865.862366,137.964417 864.521362,135.919907 
	C863.132446,133.802307 859.732239,132.812210 858.788513,130.642990 
	C857.619507,127.956001 857.322266,124.375000 858.036987,121.528900 
	C858.743591,118.715256 861.536621,118.879906 864.275330,119.964401 
	C865.698792,120.528038 867.675354,119.866150 869.362915,119.549484 
	C871.589905,119.131599 873.778687,118.509521 875.983643,117.974426 
	C877.207764,117.677391 879.007935,117.747276 879.498047,116.980408 
	C880.019714,116.164322 879.611938,114.386597 879.042603,113.336288 
	C878.373108,112.101212 876.962280,111.292633 876.110474,110.125664 
	C874.955505,108.543221 874.026184,106.796089 873.000000,105.119583 
	C876.876770,106.806396 880.753418,108.493225 884.977661,110.756439 
	C885.904785,111.541412 886.484314,111.749985 887.063904,111.958542 
	C887.063904,111.958542 887.013794,112.001846 887.192383,112.227417 
	C887.755371,112.592194 888.139771,112.731407 888.524109,112.870628 
z"/>
<path fill="#243878" opacity="1.000000" stroke="none" 
	d="
M734.965088,349.012177 
	C733.678833,345.251923 732.392578,341.491669 731.410889,337.015259 
	C731.810242,334.479614 731.987488,332.660095 731.988037,330.840546 
	C732.004272,273.893494 732.003235,216.946442 732.398071,160.000244 
	C734.578308,161.355331 737.457825,162.413956 737.921326,164.126450 
	C738.837585,167.512100 739.245361,171.471191 738.389709,174.816223 
	C736.119995,183.688965 734.593262,192.271378 739.331238,200.855499 
	C740.058838,202.173752 739.958496,204.092941 739.845703,205.706528 
	C739.305054,213.434616 738.683655,221.158310 737.965820,228.871933 
	C737.754944,231.138062 737.651428,233.651627 736.600891,235.556747 
	C733.682007,240.850327 735.692139,244.968491 738.664307,249.322800 
	C739.786255,250.966492 739.907227,253.336014 740.325012,255.406830 
	C740.827026,257.895020 741.159058,260.417480 741.684814,263.667969 
	C743.566650,262.494843 744.190063,262.243195 744.633972,261.808350 
	C749.217163,257.318970 751.143250,251.488159 752.164062,245.442535 
	C752.541748,243.205475 751.820435,240.421646 750.707153,238.372406 
	C748.652527,234.590469 747.269104,231.126526 749.027649,226.732193 
	C751.019470,221.754959 752.180237,216.440842 754.243469,211.499176 
	C754.871460,209.995071 757.757263,207.980453 758.803833,208.368896 
	C762.355957,209.687271 763.808167,207.878143 765.062439,205.366333 
	C766.216858,203.054398 767.216003,200.650696 768.098511,198.220215 
	C769.868347,193.345825 771.641479,188.464874 773.143738,183.505005 
	C773.748352,181.508881 774.596130,178.078110 773.707275,177.384735 
	C768.272339,173.145172 767.443359,169.710861 772.618347,164.172028 
	C774.710693,161.932571 773.784546,156.739792 773.966187,152.878464 
	C774.260071,146.630341 776.380859,144.451172 782.385132,142.773422 
	C784.735107,142.116760 786.571350,139.621628 789.096008,137.599945 
	C782.640808,133.826920 780.960205,129.353531 781.514343,123.608658 
	C781.648254,122.220245 780.730408,120.147827 779.609802,119.326805 
	C775.771057,116.514465 775.773438,113.126953 777.294556,109.245186 
	C783.100708,115.188812 784.627258,122.885521 785.610168,130.261902 
	C791.456909,123.534996 797.283203,116.831596 803.696045,109.948563 
	C804.512573,109.495934 804.742615,109.222923 804.972656,108.949936 
	C804.972656,108.949951 804.993530,109.003426 805.338745,108.990005 
	C811.530762,107.112473 817.327515,105.061066 823.249756,103.479362 
	C825.517456,102.873718 829.597961,102.447426 830.207703,103.488426 
	C831.997070,106.543388 835.851685,109.944824 831.448486,114.113441 
	C826.889648,118.429298 822.466248,122.910881 818.289551,127.592873 
	C817.132690,128.889618 816.383118,131.250885 816.617920,132.963074 
	C817.499512,139.389099 817.453735,144.314941 811.019592,149.104248 
	C804.597534,153.884598 797.859192,156.353500 790.606079,156.766968 
	C780.665833,157.333603 782.106384,157.323929 782.001038,166.190964 
	C781.993103,166.856903 781.998901,167.522995 782.000183,168.189026 
	C782.014832,175.865677 781.962097,183.445938 775.576538,189.282837 
	C774.447632,190.314697 774.201355,192.609314 774.049744,194.364166 
	C773.156616,204.704575 777.872559,212.922150 784.027832,220.660309 
	C785.179199,222.107819 785.919800,224.321396 785.904907,226.173843 
	C785.862488,231.460968 785.235657,236.740494 785.035889,242.030457 
	C784.934937,244.704849 783.895813,245.784988 781.178589,246.111099 
	C779.394592,246.325211 776.786316,247.238876 776.196289,248.570099 
	C773.064636,255.635773 767.223511,253.930206 761.677429,253.812347 
	C759.975281,253.776154 758.253235,254.678406 756.540283,255.150940 
	C757.145996,256.894165 757.531189,258.765991 758.443542,260.330383 
	C758.956604,261.209930 760.504883,261.417511 761.299744,262.214172 
	C763.359741,264.278564 765.260681,266.501648 767.225159,268.661346 
	C766.886658,269.103760 766.548218,269.546173 766.209778,269.988586 
	C761.742676,266.340942 759.478882,268.859375 758.314331,272.671509 
	C756.828979,277.533630 755.672363,282.523407 754.798462,287.532196 
	C754.430908,289.638916 755.149353,291.935089 755.374146,294.145111 
	C756.388672,294.782135 755.718140,295.375488 755.779846,295.879150 
	C756.266418,299.850616 756.892700,303.804962 757.476013,307.764526 
	C759.902954,307.391693 762.383423,307.221191 764.744019,306.597290 
	C768.065063,305.719543 769.322266,307.063568 768.887634,310.945801 
	C768.582275,313.673248 767.887451,316.774109 768.824707,319.127533 
	C770.290894,322.808899 770.108521,326.273468 770.357117,330.036072 
	C770.850769,337.509033 766.298462,342.331696 762.122620,346.221710 
	C757.953613,350.105316 753.199097,355.630035 745.675110,353.686310 
	C743.927246,353.234772 741.899170,353.868225 739.719238,354.010742 
	C739.252686,354.041504 739.066772,354.063904 738.880859,354.086334 
	C738.880859,354.086334 738.967834,354.080170 738.850830,353.863129 
	C738.434387,353.448944 738.134888,353.251831 737.835449,353.054688 
	C737.204041,352.377136 736.572632,351.699585 735.857422,350.441040 
	C735.504089,349.577423 735.234558,349.294800 734.965088,349.012177 
M759.228638,229.670059 
	C759.228638,227.534378 759.228638,225.398697 759.228638,222.476852 
	C751.034546,228.077316 750.873108,228.603531 754.796387,237.114670 
	C756.476929,234.489578 757.770569,232.468918 759.228638,229.670059 
M793.182495,133.554977 
	C793.310059,134.667877 793.437622,135.780777 793.565247,136.893661 
	C794.626648,136.321899 795.688110,135.750137 796.749512,135.178360 
	C795.787109,134.519958 794.824646,133.861557 793.182495,133.554977 
M805.466980,124.137383 
	C804.607117,125.041397 803.747253,125.945404 802.887390,126.849419 
	C803.516479,127.233643 804.145569,127.617874 804.774658,128.002090 
	C805.234192,126.766930 805.693726,125.531754 805.466980,124.137383 
z"/>
<path fill="#8FCCF3" opacity="1.000000" stroke="none" 
	d="
M326.056396,298.935150 
	C318.750153,294.189178 310.875916,290.121399 304.245575,284.568390 
	C285.378357,268.766785 273.836884,248.369995 269.608551,224.133514 
	C265.351166,199.730408 268.170074,176.233170 280.623993,154.391602 
	C282.552429,154.605515 284.326935,155.183228 285.578552,154.613098 
	C293.110504,151.182175 300.120850,146.828064 305.706970,140.651520 
	C307.940826,138.181503 309.277466,134.917038 311.158447,132.105148 
	C312.519928,130.069778 313.822357,127.838730 315.668274,126.326019 
	C317.642090,124.708542 320.258331,123.885399 321.975281,127.038216 
	C323.473083,129.788559 323.984863,133.141525 320.723236,134.341080 
	C314.967346,136.457947 313.623260,141.575882 311.607727,146.109894 
	C309.341614,151.207520 314.401215,158.692352 319.905182,158.970840 
	C323.129761,159.134018 324.678528,160.145691 323.284454,163.602081 
	C321.868835,167.111984 320.611694,170.685471 319.228485,174.208862 
	C317.198029,179.380890 313.999847,184.396301 313.346710,189.729202 
	C312.567352,196.092819 312.374847,202.179626 307.282501,206.845657 
	C307.060516,207.049026 307.310272,207.767227 307.352417,208.439377 
	C307.977875,208.621567 308.598602,208.993820 309.181458,208.941742 
	C313.626068,208.544662 315.869293,210.154480 316.326202,214.962036 
	C316.557861,217.399551 318.651062,219.660141 319.895081,222.390228 
	C319.237640,226.180649 318.587830,229.581543 317.672058,233.264679 
	C316.796387,237.941284 316.112549,242.326920 315.591461,246.731812 
	C314.301086,257.639130 314.583374,268.442261 318.006470,279.390747 
	C320.319122,284.897095 322.635864,290.015137 324.973633,295.421692 
	C325.316376,296.155975 325.638184,296.601715 325.990784,297.361816 
	C326.033173,298.095795 326.044800,298.515472 326.056396,298.935150 
z"/>
<path fill="#232E6E" opacity="1.000000" stroke="none" 
	d="
M814.051758,305.386780 
	C823.423706,300.675629 833.146057,304.646576 842.771912,304.333984 
	C845.879333,304.233124 849.028381,303.340790 852.013733,302.366913 
	C853.672119,301.825928 854.891663,299.920135 856.550293,299.402466 
	C864.814880,296.822968 867.534973,289.832458 869.802246,282.720032 
	C871.647888,276.930359 872.066895,270.618042 874.400208,265.077271 
	C875.790833,261.775177 879.764465,259.614807 882.384705,256.764465 
	C886.789673,251.972565 891.561401,247.383530 895.115417,242.006317 
	C896.649048,239.686050 895.461731,235.609467 895.639343,232.337723 
	C895.786865,229.621277 896.214600,226.919983 896.359619,224.203506 
	C896.902588,214.028732 902.670593,205.745850 906.115601,196.613556 
	C907.791138,192.172012 908.455261,187.827621 914.689575,187.375183 
	C917.259583,187.188675 919.902283,184.878479 922.015869,182.981476 
	C922.931946,182.159241 923.339966,179.316788 922.655640,178.498993 
	C921.568420,177.199493 919.039185,175.808517 917.703979,176.244598 
	C912.580200,177.918060 910.170349,173.472107 906.567322,171.880707 
	C905.816956,171.549286 905.751282,169.667542 905.370056,168.500244 
	C906.504028,168.134354 907.742310,167.281250 908.751587,167.497406 
	C911.378235,168.059921 913.861755,169.288467 916.487793,169.856766 
	C917.890503,170.160324 919.801758,170.122253 920.876892,169.370682 
	C921.967957,168.607941 922.850891,166.784943 922.870789,165.412460 
	C922.911011,162.633347 922.583313,159.768204 921.842957,157.094849 
	C921.506409,155.879990 919.807312,154.164291 918.759094,154.187057 
	C915.427063,154.259399 914.030396,152.482819 912.895569,149.829575 
	C911.239807,145.957993 909.272156,142.466568 904.667786,141.121109 
	C903.477600,140.773315 901.966980,138.284317 902.150391,136.999725 
	C903.343689,128.641129 898.887024,123.407066 892.928162,118.779747 
	C892.394775,118.365585 892.331360,117.346207 892.070740,116.232040 
	C898.839478,121.418053 906.420959,126.239090 912.159729,132.697540 
	C923.754822,145.746979 932.041931,160.945694 936.527954,177.959213 
	C950.285522,230.136688 920.427612,286.742920 869.437256,304.671936 
	C851.286804,311.053894 832.761841,312.516266 814.051758,305.386780 
z"/>
<path fill="#92CDF3" opacity="1.000000" stroke="none" 
	d="
M145.880478,213.011856 
	C146.732071,236.066544 163.745529,253.399338 185.777939,254.978790 
	C200.845215,256.058929 216.028198,256.140808 231.140320,255.805878 
	C246.165680,255.472870 257.241760,266.163544 259.623444,279.267242 
	C262.205566,293.473511 250.413422,309.619049 235.986893,309.955109 
	C217.062576,310.396027 198.034363,311.089752 179.206543,309.645172 
	C160.047775,308.175232 142.418716,301.138672 128.232254,287.423584 
	C133.877808,286.310425 138.413528,287.122803 143.261673,290.348114 
	C151.253815,295.665009 152.762009,294.954041 160.262085,288.782410 
	C161.545166,287.726624 163.006775,286.887756 164.688202,285.742798 
	C165.622620,287.906982 166.228760,289.310852 166.864975,290.784393 
	C172.899094,286.135590 173.497101,278.850098 167.995819,277.169312 
	C163.652771,275.842377 164.415192,273.458038 164.241806,270.087982 
	C164.022369,265.822998 167.371735,261.253296 163.555695,257.250732 
	C161.379822,254.968506 159.499771,251.999069 156.825165,250.676865 
	C150.010788,247.308105 147.834641,241.380737 146.387634,234.725769 
	C145.413147,230.243988 143.974518,225.834183 143.382736,221.308594 
	C143.006638,218.432358 140.996445,214.519119 145.880478,213.011856 
z"/>
<path fill="#9CD3F7" opacity="1.000000" stroke="none" 
	d="
M91.033348,206.984634 
	C91.027260,163.984406 91.021164,120.984184 91.335335,77.820694 
	C91.770393,85.970490 91.916733,94.283295 91.984924,102.596741 
	C92.013351,106.061913 91.304909,109.698235 96.129440,110.912750 
	C96.980415,111.126976 97.627365,112.966759 97.989685,114.169930 
	C99.840813,120.317116 99.634911,126.030151 95.346039,131.441727 
	C91.254135,136.604797 91.527405,136.812119 96.637016,140.386993 
	C97.176987,140.764771 97.807541,141.170792 98.099396,141.721054 
	C100.940636,147.077972 105.016441,144.912094 108.843216,143.409515 
	C110.833298,142.628143 112.560478,141.197586 114.523163,140.321930 
	C119.038422,138.307419 125.792175,127.384087 123.614159,123.190605 
	C119.957748,116.150635 124.275627,110.326256 125.771782,104.637146 
	C128.161713,95.549446 133.474854,87.261131 137.087982,78.444641 
	C138.089310,76.001259 137.695999,72.868446 137.501236,70.082802 
	C137.261353,66.651764 136.559891,63.253002 136.057907,59.840294 
	C139.014221,64.320824 141.970535,68.801353 144.563568,73.724030 
	C143.854721,74.502098 143.266037,74.795677 143.199127,75.180092 
	C141.423904,85.377968 139.566925,95.564941 138.036179,105.800476 
	C137.391617,110.110451 137.235687,114.526672 137.242706,118.893974 
	C137.256973,127.757561 135.691040,137.173950 138.146255,145.350616 
	C141.579590,156.784805 138.480392,167.606995 138.343369,178.610107 
	C138.218628,188.626602 133.672180,198.489563 136.889114,208.792435 
	C137.194427,209.770279 136.495224,211.029465 136.404160,212.169357 
	C136.108246,215.872894 135.891403,219.582672 135.616272,223.287979 
	C135.509445,224.726715 135.406769,226.173172 135.167175,227.593338 
	C134.209900,233.267410 129.237976,233.835129 125.103806,235.599319 
	C122.652985,236.645187 120.428352,238.221085 118.102020,239.558655 
	C119.851517,241.708374 121.601013,243.858093 123.688377,246.422958 
	C122.976601,247.377045 121.948067,248.755753 120.402725,250.827225 
	C118.629555,248.916458 117.370155,247.276291 115.830597,245.965057 
	C113.372391,243.871384 110.732201,241.990799 108.160919,240.030670 
	C106.209671,238.543198 103.317825,237.486206 102.442589,235.524628 
	C97.741478,224.988556 95.564041,213.881470 95.891571,202.255127 
	C95.974838,199.299149 94.720337,196.305466 94.080513,193.329117 
	C93.576050,193.424454 93.071594,193.519806 92.567139,193.615143 
	C92.055870,198.071640 91.544609,202.528137 91.033348,206.984634 
z"/>
<path fill="#243776" opacity="1.000000" stroke="none" 
	d="
M740.000000,354.002441 
	C741.899170,353.868225 743.927246,353.234772 745.675110,353.686310 
	C753.199097,355.630035 757.953613,350.105316 762.122620,346.221710 
	C766.298462,342.331696 770.850769,337.509033 770.357117,330.036072 
	C770.108521,326.273468 770.290894,322.808899 768.824707,319.127533 
	C767.887451,316.774109 768.582275,313.673248 768.887634,310.945801 
	C769.322266,307.063568 768.065063,305.719543 764.744019,306.597290 
	C762.383423,307.221191 759.902954,307.391693 757.476013,307.764526 
	C756.892700,303.804962 756.266418,299.850616 755.779846,295.879150 
	C755.718140,295.375488 756.388672,294.782135 755.374146,294.145111 
	C755.149353,291.935089 754.430908,289.638916 754.798462,287.532196 
	C755.672363,282.523407 756.828979,277.533630 758.314331,272.671509 
	C759.478882,268.859375 761.742676,266.340942 766.209778,269.988586 
	C766.548218,269.546173 766.886658,269.103760 767.225159,268.661346 
	C765.260681,266.501648 763.359741,264.278564 761.299744,262.214172 
	C760.504883,261.417511 758.956604,261.209930 758.443542,260.330383 
	C757.531189,258.765991 757.145996,256.894165 756.540283,255.150940 
	C758.253235,254.678406 759.975281,253.776154 761.677429,253.812347 
	C767.223511,253.930206 773.064636,255.635773 776.196289,248.570099 
	C776.786316,247.238876 779.394592,246.325211 781.178589,246.111099 
	C783.895813,245.784988 784.934937,244.704849 785.035889,242.030457 
	C785.235657,236.740494 785.862488,231.460968 785.904907,226.173843 
	C785.919800,224.321396 785.179199,222.107819 784.027832,220.660309 
	C777.872559,212.922150 773.156616,204.704575 774.049744,194.364166 
	C774.201355,192.609314 774.447632,190.314697 775.576538,189.282837 
	C781.962097,183.445938 782.014832,175.865677 782.000183,168.189026 
	C781.998901,167.522995 781.993103,166.856903 782.001038,166.190964 
	C782.106384,157.323929 780.665833,157.333603 790.606079,156.766968 
	C797.859192,156.353500 804.597534,153.884598 811.019592,149.104248 
	C817.453735,144.314941 817.499512,139.389099 816.617920,132.963074 
	C816.383118,131.250885 817.132690,128.889618 818.289551,127.592873 
	C822.466248,122.910881 826.889648,118.429298 831.448486,114.113441 
	C835.851685,109.944824 831.997070,106.543388 830.207703,103.488426 
	C829.597961,102.447426 825.517456,102.873718 823.249756,103.479362 
	C817.327515,105.061066 811.530762,107.112473 805.318176,108.969757 
	C817.532593,99.354202 831.993103,97.422264 847.829468,99.057449 
	C849.666199,99.642563 850.891479,99.781059 852.116699,99.919563 
	C852.116699,99.919563 852.023743,99.963371 852.076599,100.275833 
	C853.808472,100.705063 855.487427,100.821823 857.166443,100.938583 
	C857.166443,100.938583 857.602722,100.970261 857.854553,101.419922 
	C859.496399,102.883682 860.791260,104.559006 862.296021,104.775330 
	C865.509949,105.237381 868.832520,104.943756 872.110596,104.959702 
	C872.110596,104.959694 872.562866,104.997726 872.781433,105.058662 
	C874.026184,106.796089 874.955505,108.543221 876.110474,110.125664 
	C876.962280,111.292633 878.373108,112.101212 879.042603,113.336288 
	C879.611938,114.386597 880.019714,116.164322 879.498047,116.980408 
	C879.007935,117.747276 877.207764,117.677391 875.983643,117.974426 
	C873.778687,118.509521 871.589905,119.131599 869.362915,119.549484 
	C867.675354,119.866150 865.698792,120.528038 864.275330,119.964401 
	C861.536621,118.879906 858.743591,118.715256 858.036987,121.528900 
	C857.322266,124.375000 857.619507,127.956001 858.788513,130.642990 
	C859.732239,132.812210 863.132446,133.802307 864.521362,135.919907 
	C865.862366,137.964417 866.024292,140.782257 866.704163,143.260406 
	C864.798340,143.671555 862.902588,144.140060 860.984070,144.479248 
	C858.606140,144.899658 856.220154,145.343170 853.818237,145.542801 
	C849.951416,145.864197 846.028870,145.716949 842.201904,146.268127 
	C836.041321,147.155426 829.816772,148.025452 823.862122,149.744141 
	C820.672668,150.664734 817.990356,153.342682 814.698181,155.704865 
	C809.519836,159.348022 804.175415,161.928970 800.037292,165.799591 
	C790.994873,174.257462 785.396912,185.132172 784.343811,197.342026 
	C783.651062,205.373672 782.971863,213.967163 787.408325,221.729065 
	C789.189087,224.844681 790.086609,228.465164 791.062378,232.054214 
	C790.603333,233.019150 790.176941,233.873169 790.376831,234.539139 
	C793.155396,243.794037 794.563110,252.852997 787.910217,261.299042 
	C787.572815,261.727539 789.391968,264.770325 789.739319,264.685333 
	C794.980103,263.402374 794.585327,267.247314 794.965942,270.256317 
	C795.214722,272.222687 795.393921,274.255615 795.170471,276.209106 
	C794.900085,278.572784 794.171570,280.884094 793.641357,283.218048 
	C793.159546,282.656830 792.677673,282.095642 792.195862,281.534424 
	C789.650146,281.439484 786.924683,280.734589 784.608276,281.417450 
	C782.186157,282.131470 779.901550,283.917450 778.040405,285.730988 
	C776.633362,287.102142 775.178345,289.247253 775.163696,291.059357 
	C775.129333,295.306030 775.206299,299.812714 776.556580,303.763519 
	C780.860352,316.355835 779.441467,328.937653 775.238892,340.746857 
	C770.930908,352.851959 759.418518,357.097046 747.795288,360.072998 
	C746.622620,359.620178 745.450012,359.167358 744.079163,358.081909 
	C742.905518,356.972076 741.930115,356.494904 740.954651,356.017700 
	C740.591309,356.048645 740.302368,355.916718 740.037476,355.098816 
	C739.991394,354.384644 739.995667,354.193542 740.000000,354.002441 
z"/>
<path fill="#253C7C" opacity="1.000000" stroke="none" 
	d="
M777.151794,108.966003 
	C775.773438,113.126953 775.771057,116.514465 779.609802,119.326805 
	C780.730408,120.147827 781.648254,122.220245 781.514343,123.608658 
	C780.960205,129.353531 782.640808,133.826920 789.096008,137.599945 
	C786.571350,139.621628 784.735107,142.116760 782.385132,142.773422 
	C776.380859,144.451172 774.260071,146.630341 773.966187,152.878464 
	C773.784546,156.739792 774.710693,161.932571 772.618347,164.172028 
	C767.443359,169.710861 768.272339,173.145172 773.707275,177.384735 
	C774.596130,178.078110 773.748352,181.508881 773.143738,183.505005 
	C771.641479,188.464874 769.868347,193.345825 768.098511,198.220215 
	C767.216003,200.650696 766.216858,203.054398 765.062439,205.366333 
	C763.808167,207.878143 762.355957,209.687271 758.803833,208.368896 
	C757.757263,207.980453 754.871460,209.995071 754.243469,211.499176 
	C752.180237,216.440842 751.019470,221.754959 749.027649,226.732193 
	C747.269104,231.126526 748.652527,234.590469 750.707153,238.372406 
	C751.820435,240.421646 752.541748,243.205475 752.164062,245.442535 
	C751.143250,251.488159 749.217163,257.318970 744.633972,261.808350 
	C744.190063,262.243195 743.566650,262.494843 741.684814,263.667969 
	C741.159058,260.417480 740.827026,257.895020 740.325012,255.406830 
	C739.907227,253.336014 739.786255,250.966492 738.664307,249.322800 
	C735.692139,244.968491 733.682007,240.850327 736.600891,235.556747 
	C737.651428,233.651627 737.754944,231.138062 737.965820,228.871933 
	C738.683655,221.158310 739.305054,213.434616 739.845703,205.706528 
	C739.958496,204.092941 740.058838,202.173752 739.331238,200.855499 
	C734.593262,192.271378 736.119995,183.688965 738.389709,174.816223 
	C739.245361,171.471191 738.837585,167.512100 737.921326,164.126450 
	C737.457825,162.413956 734.578308,161.355331 732.396301,159.531647 
	C732.000122,153.273819 732.103821,147.482895 731.964050,141.697830 
	C731.853821,137.138474 731.443787,132.586349 731.166992,128.031021 
	C731.000427,116.641449 736.430664,108.517250 746.468994,103.869133 
	C757.481934,98.769691 767.845337,100.630859 777.151794,108.966003 
z"/>
<path fill="#97D1F6" opacity="1.000000" stroke="none" 
	d="
M90.999146,207.424347 
	C91.544609,202.528137 92.055870,198.071640 92.567139,193.615143 
	C93.071594,193.519806 93.576050,193.424454 94.080513,193.329117 
	C94.720337,196.305466 95.974838,199.299149 95.891571,202.255127 
	C95.564041,213.881470 97.741478,224.988556 102.442589,235.524628 
	C103.317825,237.486206 106.209671,238.543198 108.160919,240.030670 
	C110.732201,241.990799 113.372391,243.871384 115.830597,245.965057 
	C117.370155,247.276291 118.629555,248.916458 120.402725,250.827225 
	C121.948067,248.755753 122.976601,247.377045 123.688377,246.422958 
	C121.601013,243.858093 119.851517,241.708374 118.102020,239.558655 
	C120.428352,238.221085 122.652985,236.645187 125.103806,235.599319 
	C129.237976,233.835129 134.209900,233.267410 135.167175,227.593338 
	C135.406769,226.173172 135.509445,224.726715 135.616272,223.287979 
	C135.891403,219.582672 136.108246,215.872894 136.404160,212.169357 
	C136.495224,211.029465 137.194427,209.770279 136.889114,208.792435 
	C133.672180,198.489563 138.218628,188.626602 138.343369,178.610107 
	C138.480392,167.606995 141.579590,156.784805 138.146255,145.350616 
	C135.691040,137.173950 137.256973,127.757561 137.242706,118.893974 
	C137.235687,114.526672 137.391617,110.110451 138.036179,105.800476 
	C139.566925,95.564941 141.423904,85.377968 143.199127,75.180092 
	C143.266037,74.795677 143.854721,74.502098 144.572235,74.086746 
	C145.288696,76.958092 145.928986,79.908463 145.933228,82.859749 
	C145.995285,125.931480 145.972382,169.003342 145.925110,212.543518 
	C140.996445,214.519119 143.006638,218.432358 143.382736,221.308594 
	C143.974518,225.834183 145.413147,230.243988 146.387634,234.725769 
	C147.834641,241.380737 150.010788,247.308105 156.825165,250.676865 
	C159.499771,251.999069 161.379822,254.968506 163.555695,257.250732 
	C167.371735,261.253296 164.022369,265.822998 164.241806,270.087982 
	C164.415192,273.458038 163.652771,275.842377 167.995819,277.169312 
	C173.497101,278.850098 172.899094,286.135590 166.864975,290.784393 
	C166.228760,289.310852 165.622620,287.906982 164.688202,285.742798 
	C163.006775,286.887756 161.545166,287.726624 160.262085,288.782410 
	C152.762009,294.954041 151.253815,295.665009 143.261673,290.348114 
	C138.413528,287.122803 133.877808,286.310425 128.101852,287.103302 
	C122.184097,281.694397 116.137596,276.702728 111.399147,270.681610 
	C101.569504,258.191284 95.008621,244.044037 92.846039,227.425476 
	C92.603020,226.517899 92.378334,226.278183 92.153641,226.038483 
	C91.793594,223.615112 91.433540,221.191742 91.339020,218.141159 
	C91.424133,216.350464 91.243698,215.186981 91.063271,214.023499 
	C91.030495,211.970352 90.997711,209.917191 90.999146,207.424347 
z"/>
<path fill="#5292CF" opacity="1.000000" stroke="none" 
	d="
M488.991425,244.916733 
	C475.629913,258.133331 463.167145,272.442444 448.714050,284.332062 
	C421.259430,306.917145 389.552948,315.913147 354.207611,308.443604 
	C359.467804,308.547729 364.595490,308.799255 369.673065,309.445099 
	C373.120544,309.883606 376.308868,310.983246 379.282104,307.717560 
	C380.270996,306.631409 382.930298,307.094238 384.816864,306.792053 
	C391.380524,305.740601 398.629608,306.325256 403.038574,299.824188 
	C404.948853,297.007477 406.471039,295.099884 410.750854,295.623505 
	C413.120850,295.913452 416.502899,292.854950 418.324127,290.464264 
	C419.137177,289.396912 417.805603,285.782898 416.452881,284.146881 
	C412.104828,278.888123 412.315308,274.831879 418.060211,270.230957 
	C417.102325,269.030151 416.146881,267.832428 415.556213,267.091919 
	C419.735504,258.503265 427.068512,252.474670 429.490173,243.337540 
	C430.089661,241.075653 432.256958,239.257858 433.536285,237.135117 
	C434.143616,236.127350 434.903839,234.702499 434.604156,233.792999 
	C434.269226,232.776382 432.622406,231.333725 431.886169,231.508377 
	C430.777039,231.771469 429.133179,233.308380 429.167999,234.250107 
	C429.312103,238.145828 427.285980,239.110382 423.958496,239.213959 
	C421.660126,239.285492 419.373596,239.736008 417.213104,239.715485 
	C428.544891,228.247696 439.745361,217.081573 451.297668,205.949280 
	C452.700714,206.747818 453.888580,207.379517 454.782349,208.297562 
	C465.863770,219.679871 476.905701,231.100662 487.940186,242.528519 
	C488.386963,242.991257 488.659851,243.621902 489.029541,244.360199 
	C489.045319,244.546082 488.991425,244.916733 488.991425,244.916733 
M444.008331,232.227646 
	C442.750732,232.595871 441.493103,232.964081 440.235504,233.332306 
	C440.560242,233.967789 440.884949,234.603287 441.209686,235.238770 
	C442.315460,234.386703 443.421204,233.534622 444.008331,232.227646 
z"/>
<path fill="#7DC2EE" opacity="1.000000" stroke="none" 
	d="
M489.013733,244.174316 
	C488.659851,243.621902 488.386963,242.991257 487.940186,242.528519 
	C476.905701,231.100662 465.863770,219.679871 454.782349,208.297562 
	C453.888580,207.379517 452.700714,206.747818 451.260010,205.605164 
	C448.934753,202.837891 447.120453,200.336594 445.040375,198.080276 
	C438.900085,191.419601 432.654694,184.855865 426.843567,178.173050 
	C432.562592,175.484329 435.141846,180.027588 438.012848,182.691330 
	C443.371185,187.662766 449.328583,189.885284 456.350586,187.930557 
	C458.131073,187.434906 459.709808,185.313110 460.836426,183.583603 
	C462.481720,181.057816 463.579742,178.181961 465.008911,175.507645 
	C467.889740,170.117035 473.037048,165.747040 470.348083,158.196243 
	C469.474854,155.744171 472.115021,152.040909 473.148193,148.909912 
	C478.524841,153.689148 483.901520,158.468399 489.602722,163.600571 
	C490.214966,164.672791 490.317932,165.571823 490.817383,166.085037 
	C503.195618,178.804565 515.615723,191.483307 528.069092,204.355881 
	C528.109802,204.542480 527.977783,204.900925 527.679199,205.054962 
	C525.726013,207.088608 524.071289,208.968201 522.112976,210.938416 
	C520.255798,212.511688 518.660278,213.953140 517.155457,215.483734 
	C507.763641,225.036179 498.392059,234.608551 489.013733,244.174316 
z"/>
<path fill="#2A4B8E" opacity="1.000000" stroke="none" 
	d="
M589.461426,255.505203 
	C589.913635,256.599518 590.064453,258.091614 590.878479,258.708374 
	C592.787415,260.154724 594.922363,261.416962 597.148743,262.283783 
	C598.332153,262.744537 599.896606,262.222595 601.289368,262.150696 
	C602.609558,262.082489 603.930237,262.022705 605.250671,261.959229 
	C605.146179,263.336456 605.463745,264.944275 604.860291,266.048920 
	C602.816956,269.789276 602.073608,274.049225 598.097656,277.071869 
	C596.076050,278.608734 596.541504,283.505768 596.031494,286.906128 
	C595.762390,288.700287 595.791626,290.541534 595.722595,292.362885 
	C595.396545,300.968658 588.486450,302.440399 582.339539,304.778351 
	C580.364136,305.529633 578.453247,306.450256 576.279907,307.538025 
	C551.180908,301.933899 531.369873,287.866760 514.378052,269.351440 
	C517.682495,268.836700 521.545166,271.845276 523.317078,266.630554 
	C523.492615,266.114014 525.465820,265.924561 526.546570,266.057037 
	C528.987305,266.356323 531.473328,267.566040 533.788330,267.258148 
	C536.201843,266.937195 539.606323,265.823853 540.447998,264.047791 
	C541.463440,261.904999 540.788147,258.496246 539.861389,256.000580 
	C538.243225,251.642899 536.531860,247.683792 538.879822,242.915070 
	C539.976379,240.687988 540.345276,237.633545 539.858398,235.190338 
	C538.732910,229.541351 538.626465,224.158813 541.447266,219.028656 
	C544.286865,221.708832 546.752808,224.310333 549.360474,226.761063 
	C556.870361,233.818832 564.437378,240.815765 571.990723,248.218704 
	C575.384583,251.353745 578.733582,254.156097 582.252563,256.725708 
	C582.445068,256.866302 584.054138,255.067047 585.288818,254.147888 
	C586.050598,254.411789 586.527344,254.698563 587.199646,255.246277 
	C588.020203,255.560349 588.645203,255.613480 589.300659,255.605682 
	C589.331116,255.544739 589.461426,255.505203 589.461426,255.505203 
z"/>
<path fill="#5495D2" opacity="1.000000" stroke="none" 
	d="
M417.081757,240.017151 
	C419.373596,239.736008 421.660126,239.285492 423.958496,239.213959 
	C427.285980,239.110382 429.312103,238.145828 429.167999,234.250107 
	C429.133179,233.308380 430.777039,231.771469 431.886169,231.508377 
	C432.622406,231.333725 434.269226,232.776382 434.604156,233.792999 
	C434.903839,234.702499 434.143616,236.127350 433.536285,237.135117 
	C432.256958,239.257858 430.089661,241.075653 429.490173,243.337540 
	C427.068512,252.474670 419.735504,258.503265 415.556213,267.091919 
	C416.146881,267.832428 417.102325,269.030151 418.060211,270.230957 
	C412.315308,274.831879 412.104828,278.888123 416.452881,284.146881 
	C417.805603,285.782898 419.137177,289.396912 418.324127,290.464264 
	C416.502899,292.854950 413.120850,295.913452 410.750854,295.623505 
	C406.471039,295.099884 404.948853,297.007477 403.038574,299.824188 
	C398.629608,306.325256 391.380524,305.740601 384.816864,306.792053 
	C382.930298,307.094238 380.270996,306.631409 379.282104,307.717560 
	C376.308868,310.983246 373.120544,309.883606 369.673065,309.445099 
	C364.595490,308.799255 359.467804,308.547729 353.859253,308.223206 
	C353.357025,308.318146 352.898315,308.395660 352.898315,308.395660 
	C352.898315,308.395660 352.444153,308.294342 351.987244,307.883240 
	C350.505615,307.350067 349.480957,307.228058 348.456268,307.106018 
	C341.136993,304.558716 333.817719,302.011383 326.277405,299.199585 
	C326.044800,298.515472 326.033173,298.095795 326.224182,297.082764 
	C331.298401,293.461700 336.259033,290.565491 341.005829,287.353363 
	C343.557251,285.626831 345.467743,282.810547 348.157227,281.464905 
	C351.995605,279.544434 355.532471,277.983032 355.362640,272.803772 
	C355.339447,272.096008 357.127686,271.459778 357.787415,270.574463 
	C359.869354,267.780487 361.931244,264.952454 363.680878,261.951050 
	C363.936493,261.512604 362.658539,259.651581 361.719879,259.168915 
	C360.297058,258.437225 358.567322,258.184265 356.936920,257.994232 
	C348.762909,257.041565 344.430420,251.524002 341.376862,244.968506 
	C352.195221,254.016281 364.750671,256.704559 378.352661,257.409027 
	C381.955597,257.898834 385.375641,257.650208 388.531036,258.448090 
	C395.519775,260.215271 399.552704,259.103790 403.585236,253.729156 
	C405.800232,253.729156 407.968597,254.204483 409.621460,253.488968 
	C410.258942,253.212997 409.725433,250.231934 409.725433,248.142929 
	C411.159241,247.601837 412.829529,246.971497 414.775879,246.236984 
	C414.839417,244.867081 414.907318,243.403168 415.099854,241.673279 
	C415.843597,240.943924 416.462677,240.480530 417.081757,240.017151 
z"/>
<path fill="#8DCBF3" opacity="1.000000" stroke="none" 
	d="
M319.902710,222.000732 
	C318.651062,219.660141 316.557861,217.399551 316.326202,214.962036 
	C315.869293,210.154480 313.626068,208.544662 309.181458,208.941742 
	C308.598602,208.993820 307.977875,208.621567 307.352417,208.439377 
	C307.310272,207.767227 307.060516,207.049026 307.282501,206.845657 
	C312.374847,202.179626 312.567352,196.092819 313.346710,189.729202 
	C313.999847,184.396301 317.198029,179.380890 319.228485,174.208862 
	C320.611694,170.685471 321.868835,167.111984 323.284454,163.602081 
	C324.678528,160.145691 323.129761,159.134018 319.905182,158.970840 
	C314.401215,158.692352 309.341614,151.207520 311.607727,146.109894 
	C313.623260,141.575882 314.967346,136.457947 320.723236,134.341080 
	C323.984863,133.141525 323.473083,129.788559 321.975281,127.038216 
	C320.258331,123.885399 317.642090,124.708542 315.668274,126.326019 
	C313.822357,127.838730 312.519928,130.069778 311.158447,132.105148 
	C309.277466,134.917038 307.940826,138.181503 305.706970,140.651520 
	C300.120850,146.828064 293.110504,151.182175 285.578552,154.613098 
	C284.326935,155.183228 282.552429,154.605515 280.913574,154.202850 
	C280.807617,153.847473 280.879852,153.871902 281.169861,153.744385 
	C281.603882,152.990814 281.747864,152.364746 281.891846,151.738678 
	C297.462616,123.785881 321.332581,106.756783 352.294250,100.306870 
	C363.530731,97.966095 375.413269,98.726898 387.225769,98.400314 
	C386.804352,99.234062 385.620117,99.714180 385.594421,100.249924 
	C385.303955,106.298561 381.194031,106.128960 376.816681,106.041412 
	C369.793549,105.900955 369.034241,106.762222 369.015503,114.190125 
	C369.003662,118.890450 368.064819,123.012070 363.665771,125.743629 
	C362.531647,126.447868 361.188751,128.074448 361.245850,129.211838 
	C361.449066,133.259018 359.861786,136.172379 356.953156,138.760574 
	C356.244568,139.391083 355.931885,140.926620 356.066498,141.964417 
	C356.628662,146.298721 354.369690,148.716354 350.921112,150.704788 
	C342.108276,155.786224 333.680145,161.354492 328.794373,170.772156 
	C324.770111,178.529282 319.490051,185.926254 320.121338,195.228149 
	C320.300476,197.867737 321.937805,200.408386 322.957336,203.425171 
	C323.363770,206.877808 323.719208,209.899673 323.768188,213.110992 
	C322.275421,216.200562 321.089050,219.100647 319.902710,222.000732 
z"/>
<path fill="#84C5EF" opacity="1.000000" stroke="none" 
	d="
M473.077148,148.574188 
	C472.115021,152.040909 469.474854,155.744171 470.348083,158.196243 
	C473.037048,165.747040 467.889740,170.117035 465.008911,175.507645 
	C463.579742,178.181961 462.481720,181.057816 460.836426,183.583603 
	C459.709808,185.313110 458.131073,187.434906 456.350586,187.930557 
	C449.328583,189.885284 443.371185,187.662766 438.012848,182.691330 
	C435.141846,180.027588 432.562592,175.484329 426.561646,178.057251 
	C423.137665,175.389267 420.620728,172.444824 417.592194,170.186478 
	C411.012726,165.280228 404.657013,159.696106 397.335449,156.242905 
	C382.868286,149.419510 367.818512,150.828842 353.021362,155.716110 
	C354.205383,154.137314 355.228027,152.149033 356.599731,151.868683 
	C364.001282,150.355927 371.452209,148.804993 378.961273,148.199402 
	C383.697815,147.817413 388.566040,149.067474 394.206818,149.675018 
	C396.036957,147.141083 398.665619,143.501511 401.294281,139.861954 
	C401.804260,139.806427 402.314240,139.750916 402.824188,139.695389 
	C401.926849,148.162979 410.932983,146.525787 413.540192,151.511551 
	C413.652954,151.727234 415.962036,151.195389 416.883148,150.516647 
	C420.503082,147.849213 422.328705,144.205292 423.116852,139.697662 
	C423.660522,136.588333 424.941071,133.387695 426.682922,130.750000 
	C431.566101,123.355400 428.761810,114.388054 420.460052,111.617111 
	C418.756195,111.048393 417.258514,109.885376 415.621521,109.087120 
	C413.433289,108.020081 411.278870,106.467392 408.971161,106.158020 
	C405.393372,105.678360 403.101318,104.174301 401.950470,100.822998 
	C431.353821,108.059082 453.697662,125.874374 473.077148,148.574188 
z"/>
<path fill="#9FD7FA" opacity="1.000000" stroke="none" 
	d="
M136.012238,59.499771 
	C136.559891,63.253002 137.261353,66.651764 137.501236,70.082802 
	C137.695999,72.868446 138.089310,76.001259 137.087982,78.444641 
	C133.474854,87.261131 128.161713,95.549446 125.771782,104.637146 
	C124.275627,110.326256 119.957748,116.150635 123.614159,123.190605 
	C125.792175,127.384087 119.038422,138.307419 114.523163,140.321930 
	C112.560478,141.197586 110.833298,142.628143 108.843216,143.409515 
	C105.016441,144.912094 100.940636,147.077972 98.099396,141.721054 
	C97.807541,141.170792 97.176987,140.764771 96.637016,140.386993 
	C91.527405,136.812119 91.254135,136.604797 95.346039,131.441727 
	C99.634911,126.030151 99.840813,120.317116 97.989685,114.169930 
	C97.627365,112.966759 96.980415,111.126976 96.129440,110.912750 
	C91.304909,109.698235 92.013351,106.061913 91.984924,102.596741 
	C91.916733,94.283295 91.770393,85.970490 91.380386,77.357574 
	C93.504257,55.901485 117.572685,45.175331 134.850845,57.583149 
	C135.345139,57.938107 135.600037,58.626392 136.012238,59.499771 
z"/>
<path fill="#87C8F2" opacity="1.000000" stroke="none" 
	d="
M401.623291,100.648811 
	C403.101318,104.174301 405.393372,105.678360 408.971161,106.158020 
	C411.278870,106.467392 413.433289,108.020081 415.621521,109.087120 
	C417.258514,109.885376 418.756195,111.048393 420.460052,111.617111 
	C428.761810,114.388054 431.566101,123.355400 426.682922,130.750000 
	C424.941071,133.387695 423.660522,136.588333 423.116852,139.697662 
	C422.328705,144.205292 420.503082,147.849213 416.883148,150.516647 
	C415.962036,151.195389 413.652954,151.727234 413.540192,151.511551 
	C410.932983,146.525787 401.926849,148.162979 402.824188,139.695389 
	C402.314240,139.750916 401.804260,139.806427 401.294281,139.861954 
	C398.665619,143.501511 396.036957,147.141083 394.206818,149.675018 
	C388.566040,149.067474 383.697815,147.817413 378.961273,148.199402 
	C371.452209,148.804993 364.001282,150.355927 356.599731,151.868683 
	C355.228027,152.149033 354.205383,154.137314 352.835449,156.001099 
	C343.307068,161.207108 336.308563,168.167709 330.550873,176.792053 
	C325.177246,184.841110 324.711853,194.052032 322.906403,202.994400 
	C321.937805,200.408386 320.300476,197.867737 320.121338,195.228149 
	C319.490051,185.926254 324.770111,178.529282 328.794373,170.772156 
	C333.680145,161.354492 342.108276,155.786224 350.921112,150.704788 
	C354.369690,148.716354 356.628662,146.298721 356.066498,141.964417 
	C355.931885,140.926620 356.244568,139.391083 356.953156,138.760574 
	C359.861786,136.172379 361.449066,133.259018 361.245850,129.211838 
	C361.188751,128.074448 362.531647,126.447868 363.665771,125.743629 
	C368.064819,123.012070 369.003662,118.890450 369.015503,114.190125 
	C369.034241,106.762222 369.793549,105.900955 376.816681,106.041412 
	C381.194031,106.128960 385.303955,106.298561 385.594421,100.249924 
	C385.620117,99.714180 386.804352,99.234062 387.681976,98.484428 
	C392.374359,98.985374 396.835205,99.729996 401.623291,100.648811 
z"/>
<path fill="#243474" opacity="1.000000" stroke="none" 
	d="
M748.078003,360.356323 
	C759.418518,357.097046 770.930908,352.851959 775.238892,340.746857 
	C779.441467,328.937653 780.860352,316.355835 776.556580,303.763519 
	C775.206299,299.812714 775.129333,295.306030 775.163696,291.059357 
	C775.178345,289.247253 776.633362,287.102142 778.040405,285.730988 
	C779.901550,283.917450 782.186157,282.131470 784.608276,281.417450 
	C786.924683,280.734589 789.650146,281.439484 792.195862,281.534424 
	C792.677673,282.095642 793.159546,282.656830 793.641357,283.218048 
	C794.171570,280.884094 794.900085,278.572784 795.170471,276.209106 
	C795.393921,274.255615 795.214722,272.222687 794.965942,270.256317 
	C794.585327,267.247314 794.980103,263.402374 789.739319,264.685333 
	C789.391968,264.770325 787.572815,261.727539 787.910217,261.299042 
	C794.563110,252.852997 793.155396,243.794037 790.376831,234.539139 
	C790.176941,233.873169 790.603333,233.019150 791.337891,232.238495 
	C795.140686,235.783722 798.140320,239.556137 801.591370,242.856476 
	C808.175171,249.152802 816.454285,252.359619 825.035217,254.876526 
	C826.830139,255.932648 828.521484,257.594208 830.440857,257.922333 
	C834.801941,258.667877 836.971680,261.423920 838.397644,265.115448 
	C838.712341,265.929932 838.575012,266.998077 838.408386,267.905823 
	C837.652100,272.025543 836.294067,276.106201 836.106018,280.244232 
	C835.696228,289.264404 833.259094,292.549835 824.542419,293.976440 
	C819.927307,294.731750 815.290527,295.469482 810.634094,295.795258 
	C808.980469,295.910950 806.741455,295.273560 805.627441,294.138275 
	C801.379944,289.809601 797.023926,288.016541 791.255127,292.027588 
	C790.527039,292.034821 790.261841,291.882782 789.937744,291.121948 
	C789.630066,290.350739 789.384644,290.134430 789.060730,290.007233 
	C789.060730,290.007233 788.827209,289.806061 788.767822,289.330566 
	C788.352417,288.608185 787.996521,288.361298 787.640564,288.114410 
	C787.004272,287.713318 786.367920,287.312225 785.204773,286.579041 
	C785.204773,302.586304 785.336304,318.004974 785.115234,333.418610 
	C785.057678,337.432037 784.529236,341.664825 783.135498,345.392487 
	C778.086426,358.896759 762.145325,365.703796 748.078003,360.356323 
z"/>
<path fill="#2A4B8E" opacity="1.000000" stroke="none" 
	d="
M583.093872,99.572823 
	C606.929565,94.859741 629.743774,98.062210 651.606567,108.872383 
	C653.172180,111.619431 654.498169,114.171776 656.416382,116.149895 
	C660.254456,120.107986 659.968689,125.512955 654.914307,127.357750 
	C650.245483,129.061829 648.289001,132.230606 646.968628,136.485687 
	C645.992615,139.630814 645.012451,142.835419 643.509094,145.741943 
	C641.237793,150.133286 638.988586,154.698105 632.936096,155.176102 
	C631.842346,155.262482 630.896240,157.218521 629.530151,158.211182 
	C619.890503,152.906509 609.873901,151.521912 599.364197,151.940308 
	C586.072693,152.469452 574.867493,157.580109 565.118408,165.996826 
	C564.041809,160.535919 568.911194,160.253342 571.344360,158.356247 
	C577.099548,153.869034 582.272095,148.484634 590.361877,147.534195 
	C595.713196,146.905518 598.611816,140.779785 597.693176,135.296921 
	C597.432129,133.738983 597.586243,131.061371 598.502563,130.525162 
	C604.877502,126.794617 605.082886,120.292542 605.816284,114.325478 
	C606.209351,111.127350 607.321472,109.585381 610.025818,108.456047 
	C611.828491,107.703285 613.460144,106.541115 615.421387,105.417152 
	C610.389587,100.627525 605.728455,98.078354 599.412354,98.896828 
	C594.033936,99.593781 588.537903,99.382370 583.093872,99.572823 
z"/>
<path fill="#2C5397" opacity="1.000000" stroke="none" 
	d="
M505.043640,148.999451 
	C518.457520,134.849564 531.918335,120.738068 549.287903,111.247192 
	C552.993164,109.222618 556.952454,107.662979 561.524963,105.913193 
	C562.505066,105.958160 562.754944,105.979080 563.042908,106.361206 
	C564.060059,107.780975 565.205322,108.733154 565.970520,109.928581 
	C566.707947,111.080620 567.778503,112.720894 567.446777,113.736443 
	C565.875916,118.545563 563.849487,123.204391 562.035217,127.935905 
	C560.389709,132.227386 558.725586,136.515564 557.255554,140.867950 
	C556.877258,141.987823 557.198730,143.343994 557.198730,144.906876 
	C560.264526,144.556015 562.683533,144.181717 565.116638,144.024063 
	C568.558228,143.801025 572.539124,144.888748 572.253235,148.388458 
	C572.035400,151.054413 568.466125,153.482071 566.272949,155.912064 
	C565.951843,156.267853 564.871948,155.835709 564.349548,156.132019 
	C562.653748,157.093796 560.503967,157.860153 559.513184,159.354324 
	C555.475342,165.443665 551.803589,171.775757 547.639099,177.976654 
	C531.740967,170.422623 517.947144,160.360855 505.043640,148.999451 
z"/>
<path fill="#2C5093" opacity="1.000000" stroke="none" 
	d="
M547.996887,178.018372 
	C551.803589,171.775757 555.475342,165.443665 559.513184,159.354324 
	C560.503967,157.860153 562.653748,157.093796 564.349548,156.132019 
	C564.871948,155.835709 565.951843,156.267853 566.272949,155.912064 
	C568.466125,153.482071 572.035400,151.054413 572.253235,148.388458 
	C572.539124,144.888748 568.558228,143.801025 565.116638,144.024063 
	C562.683533,144.181717 560.264526,144.556015 557.198730,144.906876 
	C557.198730,143.343994 556.877258,141.987823 557.255554,140.867950 
	C558.725586,136.515564 560.389709,132.227386 562.035217,127.935905 
	C563.849487,123.204391 565.875916,118.545563 567.446777,113.736443 
	C567.778503,112.720894 566.707947,111.080620 565.970520,109.928581 
	C565.205322,108.733154 564.060059,107.780975 563.266174,106.245117 
	C563.638245,105.494095 563.825134,105.220383 564.012024,104.946671 
	C564.012024,104.946663 564.174927,104.782089 564.699097,104.853119 
	C566.093079,104.478050 566.962952,104.031952 567.832764,103.585846 
	C567.832764,103.585846 567.882263,103.733009 568.144043,103.789734 
	C568.951660,103.520409 569.497437,103.194366 570.043213,102.868317 
	C570.043213,102.868309 570.201660,102.760193 570.651978,102.831390 
	C571.732910,102.614128 572.363464,102.325676 572.994080,102.037224 
	C573.294739,101.901726 573.595459,101.766228 574.557983,101.777023 
	C577.142090,101.311455 579.064270,100.699593 580.986450,100.087723 
	C581.507690,99.893692 582.028992,99.699669 582.822021,99.539238 
	C588.537903,99.382370 594.033936,99.593781 599.412354,98.896828 
	C605.728455,98.078354 610.389587,100.627525 615.421387,105.417152 
	C613.460144,106.541115 611.828491,107.703285 610.025818,108.456047 
	C607.321472,109.585381 606.209351,111.127350 605.816284,114.325478 
	C605.082886,120.292542 604.877502,126.794617 598.502563,130.525162 
	C597.586243,131.061371 597.432129,133.738983 597.693176,135.296921 
	C598.611816,140.779785 595.713196,146.905518 590.361877,147.534195 
	C582.272095,148.484634 577.099548,153.869034 571.344360,158.356247 
	C568.911194,160.253342 564.041809,160.535919 565.056885,166.188721 
	C564.857666,167.026611 564.620178,167.129669 564.040283,167.180862 
	C563.530823,167.573700 563.306030,167.885422 563.076660,168.134125 
	C563.072144,168.071106 563.196411,168.093948 562.932922,168.179855 
	C562.471130,168.566360 562.272888,168.866943 562.069885,169.117340 
	C562.065186,169.067123 562.164062,169.087036 561.924072,169.146606 
	C561.370300,169.352478 561.146301,169.585281 560.720642,170.076599 
	C556.987732,173.879089 553.546326,177.509567 550.053040,180.815491 
	C549.333069,179.666748 548.664978,178.842560 547.996887,178.018372 
M578.865479,111.468842 
	C580.326111,109.688103 581.786743,107.907356 583.247437,106.126610 
	C582.880615,105.791512 582.513794,105.456406 582.147034,105.121300 
	C580.738220,105.415543 579.205078,105.457039 577.954468,106.072632 
	C576.610291,106.734276 575.531372,107.934830 574.336731,108.900230 
	C575.628418,109.864418 576.920044,110.828613 578.865479,111.468842 
z"/>
<path fill="#2B5195" opacity="1.000000" stroke="none" 
	d="
M541.138428,218.881119 
	C538.626465,224.158813 538.732910,229.541351 539.858398,235.190338 
	C540.345276,237.633545 539.976379,240.687988 538.879822,242.915070 
	C536.531860,247.683792 538.243225,251.642899 539.861389,256.000580 
	C540.788147,258.496246 541.463440,261.904999 540.447998,264.047791 
	C539.606323,265.823853 536.201843,266.937195 533.788330,267.258148 
	C531.473328,267.566040 528.987305,266.356323 526.546570,266.057037 
	C525.465820,265.924561 523.492615,266.114014 523.317078,266.630554 
	C521.545166,271.845276 517.682495,268.836700 514.239380,269.040771 
	C505.755157,261.087616 497.692657,253.120270 489.310791,245.034821 
	C488.991425,244.916733 489.045319,244.546082 489.029541,244.360199 
	C498.392059,234.608551 507.763641,225.036179 517.155457,215.483734 
	C518.660278,213.953140 520.255798,212.511688 522.519409,210.994171 
	C525.890198,212.485397 528.445740,214.251892 531.239441,215.474167 
	C534.427795,216.869125 537.828247,217.779358 541.123413,218.907013 
	C541.110352,218.913803 541.138428,218.881119 541.138428,218.881119 
z"/>
<path fill="#27407E" opacity="1.000000" stroke="none" 
	d="
M635.394287,306.232391 
	C636.200928,301.616211 638.875366,297.688934 643.627930,297.215057 
	C652.977173,296.282959 656.814636,289.537048 660.995667,282.755890 
	C662.104797,280.957001 663.821411,279.534760 665.242981,277.925446 
	C665.836914,277.253143 666.959045,276.456879 666.868835,275.865234 
	C666.200317,271.482849 669.171692,269.166748 671.830139,266.697632 
	C674.871582,263.872864 675.696655,261.117401 672.396912,257.825989 
	C669.691589,255.127533 671.404541,252.924118 674.107910,252.256866 
	C679.123657,251.018845 681.290710,248.048172 682.624207,243.192520 
	C683.783325,238.971848 686.257385,235.034790 688.618958,231.266113 
	C689.389648,230.036255 691.760376,228.921021 693.184021,229.141785 
	C699.397644,230.105392 701.863403,226.112228 702.793884,221.474838 
	C704.525330,212.845337 706.142090,204.067383 706.372070,195.313538 
	C706.491882,190.751266 703.523621,186.119247 702.019958,181.496094 
	C701.562561,180.089706 701.077820,178.612366 701.051819,177.159531 
	C700.947937,171.355270 701.019714,165.547867 701.040466,159.328491 
	C708.218018,172.797058 711.155945,187.697586 711.082581,203.160034 
	C710.972656,226.333450 705.022644,247.778168 691.499939,266.931763 
	C678.504517,285.338531 660.698486,297.061737 639.959412,304.867676 
	C638.594604,305.381378 637.184631,305.775116 635.394287,306.232391 
z"/>
<path fill="#284689" opacity="1.000000" stroke="none" 
	d="
M629.881897,158.311401 
	C630.896240,157.218521 631.842346,155.262482 632.936096,155.176102 
	C638.988586,154.698105 641.237793,150.133286 643.509094,145.741943 
	C645.012451,142.835419 645.992615,139.630814 646.968628,136.485687 
	C648.289001,132.230606 650.245483,129.061829 654.914307,127.357750 
	C659.968689,125.512955 660.254456,120.107986 656.416382,116.149895 
	C654.498169,114.171776 653.172180,111.619431 651.835571,109.138832 
	C656.981323,112.032280 661.869873,115.113716 666.907471,118.507042 
	C666.790833,122.255577 667.663147,124.146301 671.042542,126.604095 
	C676.254700,130.394836 680.986389,135.970718 683.652954,141.823151 
	C686.361755,147.768494 680.620728,152.015961 675.813171,153.799988 
	C668.184021,156.631042 666.037476,163.082504 663.168091,169.238953 
	C661.338318,173.165024 656.284302,174.725754 654.118347,171.173019 
	C650.606934,165.413300 645.513062,164.898254 639.402771,165.025879 
	C638.978943,165.030029 638.968506,165.072983 638.861206,164.835663 
	C638.467041,164.414078 638.180115,164.229828 637.931519,164.037231 
	C637.969727,164.028900 637.960266,164.106598 637.819702,163.825836 
	C637.330933,163.312027 636.982727,163.078979 636.329590,162.782654 
	C633.977051,161.250046 631.929443,159.780716 629.881897,158.311401 
z"/>
<path fill="#243776" opacity="1.000000" stroke="none" 
	d="
M547.639099,177.976654 
	C548.664978,178.842560 549.333069,179.666748 549.907043,181.115738 
	C542.551453,189.216782 535.289917,196.693024 528.028442,204.169281 
	C515.615723,191.483307 503.195618,178.804565 490.817383,166.085037 
	C490.317932,165.571823 490.214966,164.672791 489.969971,163.605820 
	C494.813507,158.587173 499.614349,153.916214 504.729401,149.122345 
	C517.947144,160.360855 531.740967,170.422623 547.639099,177.976654 
z"/>
<path fill="#233272" opacity="1.000000" stroke="none" 
	d="
M731.081299,128.490845 
	C731.443787,132.586349 731.853821,137.138474 731.964050,141.697830 
	C732.103821,147.482895 732.000122,153.273819 732.003174,159.530807 
	C732.003235,216.946442 732.004272,273.893494 731.988037,330.840546 
	C731.987488,332.660095 731.810242,334.479614 731.466553,336.623657 
	C731.123352,335.626038 730.945984,334.303833 730.946106,332.981659 
	C730.953125,264.971313 730.975220,196.960983 731.081299,128.490845 
z"/>
<path fill="#233272" opacity="1.000000" stroke="none" 
	d="
M871.932922,104.610939 
	C868.832520,104.943756 865.509949,105.237381 862.296021,104.775330 
	C860.791260,104.559006 859.496399,102.883682 858.054626,101.508270 
	C862.586975,102.185364 867.171143,103.223770 871.932922,104.610939 
z"/>
<path fill="#27407E" opacity="1.000000" stroke="none" 
	d="
M697.012817,150.624634 
	C691.737366,151.656570 691.682434,148.296295 692.238281,144.106750 
	C693.884766,145.871078 695.423706,148.077759 697.012817,150.624634 
z"/>
<path fill="#27407E" opacity="1.000000" stroke="none" 
	d="
M701.058105,158.604675 
	C696.656738,159.171494 698.345764,155.863083 698.088623,153.265930 
	C699.096802,154.639984 700.066223,156.447617 701.058105,158.604675 
z"/>
<path fill="#2A4B8E" opacity="1.000000" stroke="none" 
	d="
M580.599121,100.046829 
	C579.064270,100.699593 577.142090,101.311455 574.784119,101.887711 
	C576.302795,101.236717 578.257263,100.621323 580.599121,100.046829 
z"/>
<path fill="#233272" opacity="1.000000" stroke="none" 
	d="
M856.985474,100.575226 
	C855.487427,100.821823 853.808472,100.705063 852.102356,100.231384 
	C853.651672,99.986938 855.228088,100.099403 856.985474,100.575226 
z"/>
<path fill="#243474" opacity="1.000000" stroke="none" 
	d="
M741.095032,356.303253 
	C741.930115,356.494904 742.905518,356.972076 743.908264,357.811249 
	C743.035522,357.645081 742.135437,357.116943 741.095032,356.303253 
z"/>
<path fill="#233272" opacity="1.000000" stroke="none" 
	d="
M851.942261,99.574799 
	C850.891479,99.781059 849.666199,99.642563 848.208862,99.213036 
	C849.240479,99.024689 850.504089,99.127365 851.942261,99.574799 
z"/>
<path fill="#9CD3F7" opacity="1.000000" stroke="none" 
	d="
M91.024055,214.415710 
	C91.243698,215.186981 91.424133,216.350464 91.370102,217.731201 
	C91.085373,216.901611 91.035103,215.854767 91.024055,214.415710 
z"/>
<path fill="#27407E" opacity="1.000000" stroke="none" 
	d="
M628.381775,308.057190 
	C628.933350,307.696991 629.870850,307.385101 631.208984,307.095215 
	C630.662292,307.446625 629.715027,307.776062 628.381775,308.057190 
z"/>
<path fill="#5292CF" opacity="1.000000" stroke="none" 
	d="
M348.735779,307.377686 
	C349.480957,307.228058 350.505615,307.350067 351.781250,307.768982 
	C351.026581,307.927002 350.020935,307.788147 348.735779,307.377686 
z"/>
<path fill="#2A4B8E" opacity="1.000000" stroke="none" 
	d="
M567.454163,103.609268 
	C566.962952,104.031952 566.093079,104.478050 564.805603,104.898575 
	C565.283813,104.459557 566.179688,104.046127 567.454163,103.609268 
z"/>
<path fill="#8FCCF3" opacity="1.000000" stroke="none" 
	d="
M281.650024,151.947357 
	C281.747864,152.364746 281.603882,152.990814 281.174377,153.782257 
	C281.061981,153.350433 281.235107,152.753235 281.650024,151.947357 
z"/>
<path fill="#232E6E" opacity="1.000000" stroke="none" 
	d="
M886.898926,111.702354 
	C886.484314,111.749985 885.904785,111.541412 885.198608,111.039886 
	C885.626038,110.980019 886.179993,111.213089 886.898926,111.702354 
z"/>
<path fill="#2A4B8E" opacity="1.000000" stroke="none" 
	d="
M572.630249,102.002808 
	C572.363464,102.325676 571.732910,102.614128 570.732727,102.883118 
	C570.997559,102.565239 571.632019,102.266815 572.630249,102.002808 
z"/>
<path fill="#27407E" opacity="1.000000" stroke="none" 
	d="
M698.153687,152.629700 
	C697.822083,152.473526 697.448792,152.018494 697.058777,151.246643 
	C697.398743,151.396820 697.755432,151.863831 698.153687,152.629700 
z"/>
<path fill="#2A4B8E" opacity="1.000000" stroke="none" 
	d="
M563.664062,104.951859 
	C563.825134,105.220383 563.638245,105.494095 563.228088,105.883896 
	C562.754944,105.979080 562.505066,105.958160 561.878906,105.907898 
	C562.107117,105.571381 562.711609,105.264214 563.664062,104.951859 
z"/>
<path fill="#2A4B8E" opacity="1.000000" stroke="none" 
	d="
M569.718750,102.866791 
	C569.497437,103.194366 568.951660,103.520409 568.068298,103.772850 
	C568.285278,103.421249 568.839783,103.143257 569.718750,102.866791 
z"/>
<path fill="#232E6E" opacity="1.000000" stroke="none" 
	d="
M891.026733,114.680916 
	C890.822327,114.742210 890.533569,114.534355 890.152100,114.070236 
	C890.353760,114.013229 890.648071,114.212502 891.026733,114.680916 
z"/>
<path fill="#27407E" opacity="1.000000" stroke="none" 
	d="
M633.348755,306.893494 
	C633.367615,306.646240 633.716370,306.420959 634.387268,306.190125 
	C634.365845,306.428223 634.022278,306.671875 633.348755,306.893494 
z"/>
<path fill="#233272" opacity="1.000000" stroke="none" 
	d="
M789.070435,290.277039 
	C789.384644,290.134430 789.630066,290.350739 789.876648,290.892517 
	C789.664307,290.934906 789.372192,290.740906 789.070435,290.277039 
z"/>
<path fill="#233272" opacity="1.000000" stroke="none" 
	d="
M787.770752,288.409058 
	C787.996521,288.361298 788.352417,288.608185 788.798096,289.179443 
	C788.558838,289.237122 788.229858,288.970398 787.770752,288.409058 
z"/>
<path fill="#243474" opacity="1.000000" stroke="none" 
	d="
M734.994507,349.316528 
	C735.234558,349.294800 735.504089,349.577423 735.826172,350.156281 
	C735.593750,350.175293 735.308838,349.898102 734.994507,349.316528 
z"/>
<path fill="#243474" opacity="1.000000" stroke="none" 
	d="
M737.919800,353.321686 
	C738.134888,353.251831 738.434387,353.448944 738.833191,353.902954 
	C738.623108,353.969482 738.313660,353.779083 737.919800,353.321686 
z"/>
<path fill="#232E6E" opacity="1.000000" stroke="none" 
	d="
M892.061707,115.670074 
	C891.853577,115.744209 891.556213,115.562172 891.154114,115.134109 
	C891.357056,115.063354 891.664795,115.238632 892.061707,115.670074 
z"/>
<path fill="#243474" opacity="1.000000" stroke="none" 
	d="
M739.719238,354.010742 
	C739.995667,354.193542 739.991394,354.384644 739.965454,354.862000 
	C739.639709,354.968292 739.335510,354.788330 738.956055,354.347351 
	C739.066772,354.063904 739.252686,354.041504 739.719238,354.010742 
z"/>
<path fill="#232E6E" opacity="1.000000" stroke="none" 
	d="
M888.353516,112.607101 
	C888.139771,112.731407 887.755371,112.592194 887.197388,112.194679 
	C887.410156,112.072113 887.796570,112.207848 888.353516,112.607101 
z"/>
<path fill="#243776" opacity="1.000000" stroke="none" 
	d="
M804.696289,109.000656 
	C804.742615,109.222923 804.512573,109.495934 804.019897,109.845184 
	C803.978149,109.631424 804.199097,109.341408 804.696289,109.000656 
z"/>
<path fill="#27407E" opacity="1.000000" stroke="none" 
	d="
M692.253357,143.465485 
	C692.016663,143.580917 691.659363,143.431976 691.193848,143.000946 
	C691.434692,142.879608 691.783752,143.040359 692.253357,143.465485 
z"/>
<path fill="#9CD3F7" opacity="1.000000" stroke="none" 
	d="
M92.196976,226.283783 
	C92.378334,226.278183 92.603020,226.517899 92.863678,227.011765 
	C92.679871,227.020294 92.460083,226.774689 92.196976,226.283783 
z"/>
<path fill="#FEFEFE" opacity="1.000000" stroke="none" 
	d="
M528.069092,204.355881 
	C535.289917,196.693024 542.551453,189.216782 549.958923,181.440308 
	C553.546326,177.509567 556.987732,173.879089 560.994507,170.104492 
	C561.761230,169.669266 561.962646,169.378143 562.164062,169.087036 
	C562.164062,169.087036 562.065186,169.067123 562.336426,169.034485 
	C562.803894,168.699219 563.000183,168.396591 563.196411,168.093964 
	C563.196411,168.093948 563.072144,168.071106 563.356934,168.047501 
	C563.869507,167.715851 564.097229,167.407791 564.324951,167.099731 
	C564.620178,167.129669 564.857666,167.026611 565.098938,166.598663 
	C574.867493,157.580109 586.072693,152.469452 599.364197,151.940308 
	C609.873901,151.521912 619.890503,152.906509 629.530151,158.211166 
	C631.929443,159.780716 633.977051,161.250046 636.469116,163.076828 
	C637.262451,163.658386 637.611389,163.882507 637.960266,164.106598 
	C637.960266,164.106598 637.969727,164.028900 638.013611,164.294037 
	C638.361145,164.730438 638.664856,164.901718 638.968506,165.072983 
	C638.968506,165.072983 638.978943,165.030029 638.959595,165.041656 
	C647.299072,174.158005 653.365417,184.297836 655.512512,196.810287 
	C660.642883,226.708344 636.466797,256.511993 606.133362,256.939819 
	C600.853760,257.014252 595.559692,256.057587 589.866821,255.541199 
	C589.461426,255.505203 589.331116,255.544739 589.086426,255.381241 
	C588.229248,255.140274 587.616699,255.062805 587.004150,254.985352 
	C586.527344,254.698563 586.050598,254.411789 584.966431,253.981476 
	C580.233398,251.837494 576.107727,249.837036 571.981995,247.836578 
	C564.437378,240.815765 556.870361,233.818832 549.360474,226.761063 
	C546.752808,224.310333 544.286865,221.708832 541.447266,219.028656 
	C541.138428,218.881119 541.110352,218.913803 540.989136,218.599823 
	C536.571228,213.824203 532.274475,209.362564 527.977783,204.900925 
	C527.977783,204.900925 528.109802,204.542480 528.069092,204.355881 
z"/>
<path fill="#FEFEFE" opacity="1.000000" stroke="none" 
	d="
M825.502075,254.867493 
	C816.454285,252.359619 808.175171,249.152802 801.591370,242.856476 
	C798.140320,239.556137 795.140686,235.783722 791.661743,232.040161 
	C790.086609,228.465164 789.189087,224.844681 787.408325,221.729065 
	C782.971863,213.967163 783.651062,205.373672 784.343811,197.342026 
	C785.396912,185.132172 790.994873,174.257462 800.037292,165.799591 
	C804.175415,161.928970 809.519836,159.348022 814.658081,156.051758 
	C826.062012,152.878677 837.036255,151.814087 848.468689,154.769012 
	C867.378662,159.656631 881.427063,177.633850 883.882324,197.061539 
	C887.243896,223.661133 872.973267,247.344635 845.193726,254.103714 
	C839.085815,255.589859 832.392578,254.670227 825.502075,254.867493 
z"/>
<path fill="#253C7C" opacity="1.000000" stroke="none" 
	d="
M759.146423,230.059158 
	C757.770569,232.468918 756.476929,234.489578 754.796387,237.114670 
	C750.873108,228.603531 751.034546,228.077316 759.228638,222.476852 
	C759.228638,225.398697 759.228638,227.534378 759.146423,230.059158 
z"/>
<path fill="#253C7C" opacity="1.000000" stroke="none" 
	d="
M793.522339,133.379059 
	C794.824646,133.861557 795.787109,134.519958 796.749512,135.178360 
	C795.688110,135.750137 794.626648,136.321899 793.565247,136.893677 
	C793.437622,135.780777 793.310059,134.667877 793.522339,133.379059 
z"/>
<path fill="#253C7C" opacity="1.000000" stroke="none" 
	d="
M805.810059,124.216980 
	C805.693726,125.531754 805.234192,126.766930 804.774658,128.002090 
	C804.145569,127.617874 803.516479,127.233643 802.887390,126.849419 
	C803.747253,125.945404 804.607117,125.041397 805.810059,124.216980 
z"/>
<path fill="#5799D6" opacity="1.000000" stroke="none" 
	d="
M341.059570,244.818939 
	C344.430420,251.524002 348.762909,257.041565 356.936920,257.994232 
	C358.567322,258.184265 360.297058,258.437225 361.719879,259.168915 
	C362.658539,259.651581 363.936493,261.512604 363.680878,261.951050 
	C361.931244,264.952454 359.869354,267.780487 357.787415,270.574463 
	C357.127686,271.459778 355.339447,272.096008 355.362640,272.803772 
	C355.532471,277.983032 351.995605,279.544434 348.157227,281.464905 
	C345.467743,282.810547 343.557251,285.626831 341.005829,287.353363 
	C336.259033,290.565491 331.298401,293.461700 326.193359,296.768433 
	C325.638184,296.601715 325.316376,296.155975 324.989807,294.993774 
	C324.984192,293.624481 325.193268,292.877594 324.949615,292.333496 
	C322.899628,287.755676 323.780518,281.636993 318.010559,279.002441 
	C314.583374,268.442261 314.301086,257.639130 315.591461,246.731812 
	C316.112549,242.326920 316.796387,237.941284 318.050110,233.233215 
	C320.550903,232.985550 322.620239,232.545776 324.221954,233.218811 
	C327.994476,234.803970 331.543976,236.919952 335.162231,238.857376 
	C335.140808,238.893585 335.067841,238.851624 335.158386,239.106018 
	C335.540863,239.556778 335.832825,239.753143 336.083435,239.954346 
	C336.042084,239.959167 336.050812,239.876373 336.147522,240.125168 
	C336.533936,240.567596 336.823608,240.761230 337.074066,240.960052 
	C337.034851,240.965271 337.045380,240.886841 337.144501,241.133545 
	C337.533234,241.571808 337.822815,241.763382 338.073242,241.960297 
	C338.034088,241.965637 338.045227,241.887360 338.144470,242.133972 
	C338.533325,242.572006 338.822998,242.763412 339.073700,242.960785 
	C339.034760,242.966751 339.042053,242.888306 339.152924,243.140579 
	C339.571991,243.578125 339.880188,243.763397 340.399719,244.016144 
	C340.880280,244.255692 341.029816,244.500793 341.059570,244.818939 
z"/>
<path fill="#5495D2" opacity="1.000000" stroke="none" 
	d="
M335.183685,238.821167 
	C331.543976,236.919952 327.994476,234.803970 324.221954,233.218811 
	C322.620239,232.545776 320.550903,232.985550 318.316040,232.951004 
	C318.587830,229.581543 319.237640,226.180649 319.895081,222.390244 
	C321.089050,219.100647 322.275421,216.200562 323.791443,213.521301 
	C324.970184,216.853867 325.407532,220.158783 326.757202,223.035706 
	C329.287140,228.428360 332.345245,233.573242 335.183685,238.821167 
z"/>
<path fill="#5495D2" opacity="1.000000" stroke="none" 
	d="
M318.006470,279.390747 
	C323.780518,281.636993 322.899628,287.755676 324.949615,292.333496 
	C325.193268,292.877594 324.984192,293.624481 324.968811,294.705261 
	C322.635864,290.015137 320.319122,284.897095 318.006470,279.390747 
z"/>
<path fill="#FEFEFF" opacity="1.000000" stroke="none" 
	d="
M335.162231,238.857376 
	C332.345245,233.573242 329.287140,228.428360 326.757202,223.035706 
	C325.407532,220.158783 324.970184,216.853867 324.097870,213.331818 
	C323.719208,209.899673 323.363770,206.877808 322.957336,203.425171 
	C324.711853,194.052032 325.177246,184.841110 330.550873,176.792053 
	C336.308563,168.167709 343.307068,161.207108 352.835114,156.379913 
	C367.818512,150.828842 382.868286,149.419510 397.335449,156.242905 
	C404.657013,159.696106 411.012726,165.280228 417.592194,170.186478 
	C420.620728,172.444824 423.137665,175.389267 426.168488,178.138397 
	C432.654694,184.855865 438.900085,191.419601 445.040375,198.080276 
	C447.120453,200.336594 448.934753,202.837891 450.908142,205.571350 
	C439.745361,217.081573 428.544891,228.247696 417.213104,239.715485 
	C416.462677,240.480530 415.843597,240.943924 414.783936,241.796066 
	C403.912872,251.216766 392.073425,256.830597 378.049652,257.145386 
	C364.750671,256.704559 352.195221,254.016281 341.376862,244.968506 
	C341.029816,244.500793 340.880280,244.255692 340.283234,243.767441 
	C339.650970,243.263611 339.346527,243.075958 339.042053,242.888306 
	C339.042053,242.888306 339.034760,242.966751 338.984589,242.706360 
	C338.638031,242.259750 338.341614,242.073547 338.045227,241.887360 
	C338.045227,241.887360 338.034088,241.965637 337.983826,241.705994 
	C337.637512,241.259842 337.341431,241.073349 337.045380,240.886841 
	C337.045380,240.886841 337.034851,240.965271 336.985962,240.703995 
	C336.641663,240.253937 336.346252,240.065155 336.050812,239.876373 
	C336.050812,239.876373 336.042084,239.959167 336.000061,239.692535 
	C335.661316,239.234467 335.364563,239.043045 335.067841,238.851624 
	C335.067841,238.851624 335.140808,238.893585 335.162231,238.857376 
z"/>
<path fill="#5495D2" opacity="1.000000" stroke="none" 
	d="
M444.267639,232.455109 
	C443.421204,233.534622 442.315460,234.386703 441.209686,235.238770 
	C440.884949,234.603287 440.560242,233.967789 440.235504,233.332306 
	C441.493103,232.964081 442.750732,232.595871 444.267639,232.455109 
z"/>
<path fill="#2A4B8E" opacity="1.000000" stroke="none" 
	d="
M527.679199,205.054962 
	C532.274475,209.362564 536.571228,213.824203 541.002197,218.593033 
	C537.828247,217.779358 534.427795,216.869125 531.239441,215.474167 
	C528.445740,214.251892 525.890198,212.485397 522.822998,210.903534 
	C524.071289,208.968201 525.726013,207.088608 527.679199,205.054962 
z"/>
<path fill="#294385" opacity="1.000000" stroke="none" 
	d="
M571.990723,248.218689 
	C576.107727,249.837036 580.233398,251.837494 584.681519,254.004364 
	C584.054138,255.067047 582.445068,256.866302 582.252563,256.725708 
	C578.733582,254.156097 575.384583,251.353745 571.990723,248.218689 
z"/>
<path fill="#294385" opacity="1.000000" stroke="none" 
	d="
M587.199646,255.246277 
	C587.616699,255.062805 588.229248,255.140274 589.056030,255.442169 
	C588.645203,255.613480 588.020203,255.560349 587.199646,255.246277 
z"/>
<path fill="#5292CF" opacity="1.000000" stroke="none" 
	d="
M378.352661,257.409027 
	C392.073425,256.830597 403.912872,251.216766 414.659271,242.062042 
	C414.907318,243.403168 414.839417,244.867081 414.775879,246.236984 
	C412.829529,246.971497 411.159241,247.601837 409.725433,248.142929 
	C409.725433,250.231934 410.258942,253.212997 409.621460,253.488968 
	C407.968597,254.204483 405.800232,253.729156 403.585236,253.729156 
	C399.552704,259.103790 395.519775,260.215271 388.531036,258.448090 
	C385.375641,257.650208 381.955597,257.898834 378.352661,257.409027 
z"/>
<path fill="#2C5397" opacity="1.000000" stroke="none" 
	d="
M578.538574,111.630829 
	C576.920044,110.828613 575.628418,109.864418 574.336731,108.900230 
	C575.531372,107.934830 576.610291,106.734276 577.954468,106.072632 
	C579.205078,105.457039 580.738220,105.415543 582.147034,105.121300 
	C582.513794,105.456406 582.880615,105.791512 583.247437,106.126610 
	C581.786743,107.907356 580.326111,109.688103 578.538574,111.630829 
z"/>
<path fill="#2A4B8E" opacity="1.000000" stroke="none" 
	d="
M564.040283,167.180847 
	C564.097229,167.407791 563.869507,167.715851 563.361450,168.110519 
	C563.306030,167.885422 563.530823,167.573700 564.040283,167.180847 
z"/>
<path fill="#2A4B8E" opacity="1.000000" stroke="none" 
	d="
M562.932922,168.179871 
	C563.000183,168.396591 562.803894,168.699219 562.341064,169.084686 
	C562.272888,168.866943 562.471130,168.566360 562.932922,168.179871 
z"/>
<path fill="#2A4B8E" opacity="1.000000" stroke="none" 
	d="
M561.924072,169.146606 
	C561.962646,169.378143 561.761230,169.669266 561.286011,169.932495 
	C561.146301,169.585281 561.370300,169.352478 561.924072,169.146606 
z"/>
<path fill="#294385" opacity="1.000000" stroke="none" 
	d="
M637.819702,163.825836 
	C637.611389,163.882507 637.262451,163.658386 636.774048,163.140106 
	C636.982727,163.078979 637.330933,163.312027 637.819702,163.825836 
z"/>
<path fill="#294385" opacity="1.000000" stroke="none" 
	d="
M638.861206,164.835663 
	C638.664856,164.901718 638.361145,164.730438 637.975342,164.302368 
	C638.180115,164.229828 638.467041,164.414078 638.861206,164.835663 
z"/>
<path fill="#5495D2" opacity="1.000000" stroke="none" 
	d="
M339.152924,243.140564 
	C339.346527,243.075958 339.650970,243.263611 340.071899,243.699966 
	C339.880188,243.763397 339.571991,243.578125 339.152924,243.140564 
z"/>
<path fill="#5495D2" opacity="1.000000" stroke="none" 
	d="
M338.144470,242.133972 
	C338.341614,242.073547 338.638031,242.259750 339.023529,242.700378 
	C338.822998,242.763412 338.533325,242.572006 338.144470,242.133972 
z"/>
<path fill="#5495D2" opacity="1.000000" stroke="none" 
	d="
M337.144501,241.133545 
	C337.341431,241.073349 337.637512,241.259842 338.023010,241.700653 
	C337.822815,241.763382 337.533234,241.571808 337.144501,241.133545 
z"/>
<path fill="#5495D2" opacity="1.000000" stroke="none" 
	d="
M336.147522,240.125153 
	C336.346252,240.065155 336.641663,240.253937 337.025177,240.698792 
	C336.823608,240.761230 336.533936,240.567596 336.147522,240.125153 
z"/>
<path fill="#5495D2" opacity="1.000000" stroke="none" 
	d="
M335.158386,239.106018 
	C335.364563,239.043045 335.661316,239.234467 336.041412,239.687698 
	C335.832825,239.753143 335.540863,239.556778 335.158386,239.106018 
z"/>
</svg>