<svg version="1.1" id="Layer_1" xmlns="http://www.w3.org/2000/svg" xmlns:xlink="http://www.w3.org/1999/xlink" x="0px" y="0px"
	 width="100%" viewBox="0 0 450 450" enable-background="new 0 0 450 450" xml:space="preserve">
<path fill="#FFFFFF" opacity="1.000000" stroke="none" 
	d="
M287.000000,451.000000 
	C191.359756,451.000000 96.219498,451.000000 1.039624,451.000000 
	C1.039624,301.068054 1.039624,151.136108 1.039624,1.102080 
	C150.890244,1.102080 300.780579,1.102080 450.835449,1.102080 
	C450.835449,150.999847 450.835449,300.999908 450.835449,451.000000 
	C396.469421,451.000000 341.984711,451.000000 287.000000,451.000000 
M251.875504,293.128693 
	C251.875504,293.128693 251.726822,293.148468 251.901016,293.727600 
	C252.226913,293.950623 252.552826,294.173645 252.945251,294.783508 
	C253.095108,295.038605 253.317245,295.151764 253.863831,295.688995 
	C254.209335,295.899597 254.554855,296.110168 255.175278,296.903442 
	C257.588837,298.986969 260.002380,301.070526 262.719238,303.727386 
	C263.094452,303.921265 263.469666,304.115112 263.858521,304.143524 
	C263.858521,304.143524 263.699829,304.192291 263.891357,304.747589 
	C264.229767,304.924927 264.568146,305.102264 265.132477,305.783966 
	C265.901886,306.252716 266.671265,306.721466 267.785065,307.760895 
	C268.177246,307.953125 268.569458,308.145325 269.282043,308.900513 
	C281.515381,318.121185 295.079041,324.489899 310.753632,328.217163 
	C318.171661,329.131134 325.589661,330.045105 333.896820,331.165497 
	C336.934662,331.087463 339.972504,331.009430 343.503357,331.076355 
	C343.662872,331.013885 343.822357,330.951447 344.805389,331.035126 
	C347.878448,330.651245 350.951508,330.267365 354.678833,329.988556 
	C355.035431,329.767548 355.392029,329.546539 356.299042,329.583557 
	C356.866150,329.397278 357.433289,329.210999 358.514587,329.118408 
	C358.669708,329.039093 358.824860,328.959808 359.739716,328.952271 
	C361.694031,328.376648 363.648315,327.801056 365.820984,327.305145 
	C365.820984,327.305145 365.994202,327.150085 366.699829,327.205872 
	C367.799072,326.820862 368.898285,326.435852 370.772522,326.130707 
	C377.306000,323.382599 384.129333,321.166382 390.321716,317.792267 
	C414.396606,304.674164 430.931091,285.118256 439.042999,258.761444 
	C440.322662,254.603638 441.036926,250.271805 442.467133,245.513367 
	C442.878479,244.330582 443.289825,243.147812 443.881104,241.321609 
	C443.896240,240.877975 443.911407,240.434326 444.274475,239.524536 
	C444.242981,238.968216 444.211487,238.411911 444.492645,237.009430 
	C444.616608,233.665451 444.740570,230.321457 445.185577,226.450134 
	C445.066162,224.948959 444.946747,223.447769 444.921814,221.175919 
	C444.845337,220.145828 444.768860,219.115753 444.914825,217.322128 
	C444.798187,216.546219 444.681580,215.770325 444.630341,214.272003 
	C444.479889,213.569168 444.329437,212.866318 444.432343,211.634247 
	C444.260681,211.093536 444.088989,210.552841 443.952911,209.260544 
	C443.836914,208.519791 443.720917,207.779037 443.781647,206.404739 
	C443.203339,205.577820 442.625061,204.750900 442.087189,203.248138 
	C441.475830,200.793365 440.864471,198.338608 440.164185,195.248322 
	C440.091644,194.826935 440.019135,194.405563 440.220490,193.643478 
	C439.806091,193.118301 439.391693,192.593140 439.126465,191.282288 
	C435.621521,180.093033 430.869812,169.552811 422.959412,159.926773 
	C419.171204,155.624695 415.703033,150.973923 411.503845,147.119598 
	C407.389130,143.342789 402.530243,140.376678 397.493103,136.581528 
	C390.713531,132.815735 383.933929,129.049957 376.648132,124.861542 
	C372.127472,123.558838 367.606842,122.256126 362.883881,120.624519 
	C362.635864,120.423264 362.404907,120.441193 361.487640,120.285164 
	C360.426788,120.150826 359.365967,120.016495 357.691315,119.396477 
	C355.129486,119.095352 352.567688,118.794228 349.151276,118.226105 
	C346.768005,118.145096 344.384705,118.064095 341.316559,117.613495 
	C322.106415,117.353256 303.695587,120.676712 285.908905,129.904007 
	C277.872040,135.570923 269.835175,141.237854 261.165466,147.088196 
	C253.440903,154.708817 245.716354,162.329437 237.393250,170.250443 
	C232.776688,174.828125 228.160141,179.405807 222.965759,183.726227 
	C218.916718,179.836670 214.867661,175.947113 210.617081,171.434540 
	C199.779984,161.484207 189.388367,150.984070 177.979172,141.739807 
	C166.806625,132.687271 154.445404,125.208862 139.857224,121.585052 
	C139.647934,121.346169 139.391235,121.272301 138.353790,121.154869 
	C137.597275,121.077957 136.840744,121.001053 136.058258,120.949715 
	C136.058258,120.949715 136.050415,120.937157 135.868286,120.545341 
	C135.653412,120.308823 135.391037,120.229431 134.349701,120.125214 
	C133.599564,120.066185 132.849442,120.007156 131.874512,119.591080 
	C131.663330,119.355286 131.407669,119.287399 130.279419,119.195961 
	C128.868820,119.109009 127.458214,119.022064 125.397682,118.414223 
	C119.922775,118.252815 114.448227,118.078133 108.972908,117.932442 
	C90.077637,117.429649 72.561485,122.422806 55.561672,131.312607 
	C55.276089,131.465195 55.095581,131.699005 54.490768,132.210403 
	C54.002071,132.493423 53.513378,132.776443 52.530212,133.188095 
	C52.311684,133.442719 52.093155,133.697327 51.439545,134.032959 
	C51.439545,134.032959 51.018784,134.170120 50.563416,134.273621 
	C50.275723,134.442398 50.099735,134.690475 49.497166,135.237717 
	C49.003468,135.545456 48.509766,135.853210 47.567596,136.272766 
	C47.286324,136.447906 47.122066,136.699509 46.514240,137.281464 
	C45.684563,137.886703 44.854885,138.491943 43.560932,139.233383 
	C43.270424,139.417221 43.093307,139.678085 42.444645,140.303741 
	C40.969658,141.551941 39.494671,142.800125 37.556549,144.213562 
	C37.263840,144.403946 37.087154,144.671097 36.435097,145.321060 
	C31.904709,150.455368 27.374323,155.589661 22.251394,160.960434 
	C21.837206,161.643921 21.423018,162.327423 20.889652,163.363190 
	C20.889652,163.363190 20.860014,163.733917 20.413908,164.037750 
	C20.221077,164.336807 20.028244,164.635849 19.341370,165.373001 
	C17.863773,167.861771 16.386179,170.350540 14.267413,173.062027 
	C13.306007,175.063293 12.344603,177.064545 11.145265,179.736862 
	C10.723464,181.088470 10.301663,182.440079 9.290216,184.015457 
	C8.995952,184.698593 8.701686,185.381714 8.192311,186.688965 
	C8.131718,187.123856 8.071123,187.558762 7.903025,188.484665 
	C7.897171,188.652100 7.891317,188.819550 7.796038,189.331192 
	C7.796038,189.331192 7.804623,189.686722 7.157527,190.015579 
	C5.872198,194.694138 4.586868,199.372711 3.158444,204.593750 
	C3.130375,204.778641 3.102305,204.963547 2.733441,205.223907 
	C2.669832,205.320007 2.534510,205.480057 2.554075,205.501984 
	C2.698751,205.664230 2.874268,205.798981 2.965750,206.801605 
	C3.181142,219.690216 2.289357,232.716507 3.871199,245.435181 
	C6.249003,264.553772 15.403344,281.083191 28.109943,295.398712 
	C37.313419,305.767548 48.126793,314.294861 61.556141,320.367645 
	C75.884346,327.445129 91.065819,330.855103 107.906181,331.115417 
	C110.609848,331.048462 113.313522,330.981537 116.501266,331.019318 
	C116.501266,331.019318 116.971863,330.864899 117.801949,330.981720 
	C143.578598,328.969299 166.304932,319.338379 185.526962,302.281342 
	C197.458557,291.693573 208.284317,279.861816 219.666458,268.649384 
	C220.910645,267.423798 222.552689,266.602051 224.520676,266.084534 
	C228.542206,270.100220 232.563751,274.115936 236.859665,278.769379 
	C241.496033,283.260376 246.132385,287.751404 250.858307,292.142853 
	C250.858307,292.142853 250.726654,292.167297 250.886780,292.714569 
	C251.204330,292.901123 251.521896,293.087708 251.875504,293.128693 
z"/>
<path fill="#294486" opacity="1.000000" stroke="none" 
	d="
M397.997986,137.054764 
	C402.530243,140.376678 407.389130,143.342789 411.503845,147.119598 
	C415.703033,150.973923 419.171204,155.624695 423.011841,160.700531 
	C423.521362,165.574783 423.999084,169.673096 424.430695,173.776260 
	C425.066559,179.821075 432.542297,184.353287 428.348999,191.472794 
	C428.296356,191.562149 428.505371,191.775223 428.506409,191.931107 
	C428.526367,194.922165 428.476471,197.914963 428.564941,200.903763 
	C428.616547,202.648621 428.616425,204.467941 429.111145,206.111877 
	C430.196930,209.720078 432.635773,213.247009 432.605652,216.790863 
	C432.557220,222.496109 431.209229,228.248154 429.860809,233.848145 
	C429.472992,235.458801 427.087128,237.876724 425.805878,237.764847 
	C419.666046,237.228867 417.709351,242.632462 415.293488,245.808044 
	C411.452271,250.857193 409.734283,257.473572 406.632202,263.162018 
	C405.690735,264.888428 403.307831,266.209045 401.303894,266.900330 
	C396.435547,268.579742 394.969360,264.619171 393.577972,261.060730 
	C387.650665,263.478241 389.795258,267.934113 390.030304,271.799164 
	C390.265076,275.660431 393.264648,274.625824 395.580597,275.115723 
	C396.790192,275.371613 398.773376,276.690399 398.722290,277.409332 
	C398.423004,281.619537 399.099976,287.802948 396.694000,289.568695 
	C391.468292,293.403900 389.750183,297.824768 388.660736,303.668121 
	C387.689331,308.878540 382.660675,310.719666 378.312683,312.915375 
	C372.320343,315.941345 368.487366,321.007782 365.994202,327.150085 
	C365.994202,327.150085 365.820984,327.305145 365.280792,327.100220 
	C360.185760,326.310699 355.469788,324.702057 351.114685,325.387115 
	C344.939667,326.358459 339.030487,329.019897 333.007690,330.959106 
	C325.589661,330.045105 318.171661,329.131134 310.626831,327.801697 
	C315.794434,325.617432 321.019714,323.586060 326.406708,322.169464 
	C330.183868,321.176208 331.115723,319.229156 330.416809,315.674103 
	C329.195740,309.463440 329.951874,303.407440 332.727234,297.715546 
	C334.691895,293.686310 337.054230,289.850311 338.999237,285.812561 
	C339.571564,284.624420 339.325439,283.042084 339.454407,281.640381 
	C338.040070,281.595734 336.489990,281.152527 335.236206,281.579437 
	C331.095398,282.989349 325.444733,280.319580 324.393738,275.972504 
	C330.178711,276.362366 335.495209,277.217712 340.779449,277.050842 
	C370.556580,276.110535 394.035248,246.921310 389.391968,217.517365 
	C387.199066,203.630508 380.024109,192.892075 371.003357,183.151749 
	C378.398682,184.970734 385.359528,186.839005 393.805298,189.105820 
	C395.168457,186.739227 397.116150,183.127823 399.285950,179.655212 
	C401.470093,176.159637 402.724548,172.047470 408.343323,171.771881 
	C414.228027,171.483231 419.466370,163.301010 416.152710,160.180923 
	C411.294525,155.606506 409.317902,148.176788 402.107300,145.955597 
	C401.325836,145.714890 400.557281,144.696548 400.228943,143.863144 
	C399.355072,141.644974 398.724976,139.330780 397.997986,137.054764 
z"/>
<path fill="#8FCCF3" opacity="1.000000" stroke="none" 
	d="
M8.010527,187.993652 
	C8.071123,187.558762 8.131718,187.123856 8.581091,186.285034 
	C9.273203,185.184616 9.576534,184.488159 9.879865,183.791687 
	C10.301663,182.440079 10.723464,181.088470 11.548433,179.314682 
	C12.963754,177.588226 13.975905,176.283936 15.202938,175.247253 
	C17.915770,174.525665 20.556694,173.794281 22.886696,172.502197 
	C32.526257,167.156754 41.606075,161.249939 45.709778,150.116013 
	C46.385010,148.284012 48.434692,146.323776 50.269276,145.737534 
	C52.004623,145.183014 55.186226,145.680634 56.132008,146.928223 
	C57.618916,148.889603 59.222141,151.704437 56.103836,154.387848 
	C52.979870,157.076111 49.763615,159.930374 47.537449,163.333160 
	C42.542133,170.968689 46.537067,178.467209 55.482922,179.035538 
	C56.118172,179.075912 56.742970,179.280731 57.714870,179.478851 
	C58.416012,184.779510 56.164989,189.096207 54.002819,193.564133 
	C51.739685,198.240707 48.880432,203.035721 48.288826,208.017334 
	C47.435875,215.199585 46.685955,221.990845 41.225060,227.320267 
	C41.104870,227.437576 41.349136,227.928329 41.575947,228.895264 
	C49.042542,227.197418 50.092186,232.471313 51.056374,238.037140 
	C51.411011,240.084305 52.379345,242.025146 53.052742,244.431015 
	C52.667900,247.568710 52.298073,250.289886 51.766411,253.360840 
	C50.870090,257.580536 49.745102,261.423401 49.474941,265.325500 
	C48.691082,276.647247 47.772938,288.028534 51.937328,299.398102 
	C54.944202,306.525574 57.940075,313.265259 60.935944,320.004913 
	C48.126793,314.294861 37.313419,305.767548 28.109943,295.398712 
	C15.403344,281.083191 6.249003,264.553772 3.871199,245.435181 
	C2.289357,232.716507 3.181142,219.690216 3.012891,206.173828 
	C3.060032,205.546036 3.074236,205.148438 3.074236,205.148438 
	C3.102305,204.963547 3.130375,204.778641 3.557066,204.212524 
	C5.238667,199.116425 6.521645,194.401581 7.804623,189.686722 
	C7.804623,189.686722 7.796038,189.331192 8.027182,189.090881 
	C8.338877,188.749161 8.507708,188.589569 8.485493,188.555862 
	C8.351449,188.352463 8.173674,188.177887 8.010527,187.993652 
z"/>
<path fill="#5292CF" opacity="1.000000" stroke="none" 
	d="
M224.010193,265.592987 
	C222.552689,266.602051 220.910645,267.423798 219.666458,268.649384 
	C208.284317,279.861816 197.458557,291.693573 185.526962,302.281342 
	C166.304932,319.338379 143.578598,328.969299 117.294327,330.777496 
	C116.530197,330.687042 116.273697,330.800812 116.017197,330.914581 
	C113.313522,330.981537 110.609848,331.048462 107.698685,330.768799 
	C113.123169,327.173462 119.113319,325.634369 125.689148,325.491119 
	C131.475250,325.365112 136.261093,322.938599 138.205872,316.748016 
	C138.515656,315.761902 139.684021,315.045471 140.444260,314.216553 
	C141.102402,314.396545 141.600937,314.452759 142.024521,314.661255 
	C145.875641,316.556732 149.442001,315.246063 151.901062,311.246735 
	C154.210999,307.489929 151.558563,305.858490 149.103958,304.041260 
	C145.839066,301.624146 144.828537,296.729797 146.791183,292.507629 
	C149.243011,287.233032 151.741516,281.979462 154.295395,276.753754 
	C154.632294,276.064362 155.328629,275.449860 156.004349,275.042664 
	C162.005981,271.425964 162.694656,265.453766 163.473267,259.479584 
	C158.850876,259.913605 154.619766,260.310852 150.595215,260.427704 
	C162.161942,248.727524 173.522095,237.307770 185.233688,225.940216 
	C189.032150,229.285461 192.580658,232.479492 195.906693,235.890457 
	C205.029175,245.245926 214.058182,254.692535 223.214417,264.302856 
	C223.539810,264.866089 223.775009,265.229553 224.010193,265.592987 
M163.282150,257.107880 
	C164.857101,256.959167 166.432037,256.810486 168.006989,256.661804 
	C167.877655,255.908768 167.748322,255.155731 167.618988,254.402695 
	C165.845276,253.743484 163.712112,251.262711 163.282150,257.107880 
z"/>
<path fill="#5595D2" opacity="1.000000" stroke="none" 
	d="
M150.388641,260.708130 
	C154.619766,260.310852 158.850876,259.913605 163.473267,259.479584 
	C162.694656,265.453766 162.005981,271.425964 156.004349,275.042664 
	C155.328629,275.449860 154.632294,276.064362 154.295395,276.753754 
	C151.741516,281.979462 149.243011,287.233032 146.791183,292.507629 
	C144.828537,296.729797 145.839066,301.624146 149.103958,304.041260 
	C151.558563,305.858490 154.210999,307.489929 151.901062,311.246735 
	C149.442001,315.246063 145.875641,316.556732 142.024521,314.661255 
	C141.600937,314.452759 141.102402,314.396545 140.444260,314.216553 
	C139.684021,315.045471 138.515656,315.761902 138.205872,316.748016 
	C136.261093,322.938599 131.475250,325.365112 125.689148,325.491119 
	C119.113319,325.634369 113.123169,327.173462 107.255463,330.683533 
	C91.065819,330.855103 75.884346,327.445129 61.246040,320.186279 
	C57.940075,313.265259 54.944202,306.525574 52.295715,299.427673 
	C55.865242,304.236755 59.087376,309.404083 62.632580,315.089478 
	C63.449028,313.523285 64.086678,312.069275 64.931480,310.747650 
	C65.699348,309.546448 67.144043,307.384308 67.517334,307.536896 
	C71.931564,309.341370 74.282425,306.684174 76.704063,303.818359 
	C80.528679,299.292175 88.597267,298.749908 88.884247,290.862396 
	C88.891762,290.655975 89.413979,290.498596 89.641762,290.265228 
	C92.594322,287.240295 95.537018,284.205780 98.514267,281.140625 
	C97.185417,279.988159 96.851074,279.455841 96.436768,279.383881 
	C95.140312,279.158600 93.813179,279.112213 92.498825,278.987274 
	C83.310623,278.114014 76.707520,272.581787 76.295135,265.252808 
	C80.762718,267.969391 84.911041,270.580017 89.231934,273.401489 
	C89.926086,273.738617 90.447662,273.864868 91.355423,274.016357 
	C92.218307,274.229523 92.695015,274.417511 93.278717,274.698608 
	C93.548149,274.898071 93.725533,274.964783 94.298561,275.011536 
	C95.163910,275.178223 95.648567,275.325134 96.278442,275.607971 
	C96.663261,275.885315 96.921234,275.939362 97.519699,275.885590 
	C98.253410,275.982697 98.665001,276.100311 99.321800,276.450287 
	C100.470329,276.745514 101.373650,276.808411 102.723640,276.829102 
	C107.455132,276.890167 111.739952,276.993469 116.120743,277.250336 
	C116.474800,277.269348 116.732887,277.134796 117.200623,276.919495 
	C117.410286,276.838715 117.853409,276.913239 118.123932,276.939209 
	C118.882645,276.789032 119.370842,276.612885 120.245972,276.305420 
	C132.219223,274.227448 141.507584,267.859589 150.388641,260.708130 
z"/>
<path fill="#7DC1ED" opacity="1.000000" stroke="none" 
	d="
M223.124207,264.103058 
	C214.058182,254.692535 205.029175,245.245926 195.906693,235.890457 
	C192.580658,232.479492 189.032150,229.285461 185.181931,225.613235 
	C183.768738,223.965210 182.833435,222.627441 181.736328,221.439056 
	C175.812164,215.021973 169.847885,208.641876 164.129425,201.935120 
	C167.848312,199.931519 170.483887,201.366104 172.554596,204.090225 
	C178.510651,211.925659 187.478348,209.990311 193.785248,211.574112 
	C196.658508,205.460922 199.103867,200.289719 201.521530,195.105591 
	C204.015320,189.758209 208.467590,185.140701 206.362213,178.174667 
	C205.921875,176.717682 209.235123,174.126236 210.818634,172.057556 
	C214.867661,175.947113 218.916718,179.836670 223.342743,184.204315 
	C236.472961,197.847198 249.226181,211.011978 262.022034,224.383911 
	C262.064697,224.591064 261.869720,224.968323 261.615784,225.171051 
	C259.240387,227.581558 257.118927,229.789322 254.694580,232.134918 
	C243.969208,242.882874 233.546707,253.492966 223.124207,264.103058 
z"/>
<path fill="#83C5EF" opacity="1.000000" stroke="none" 
	d="
M210.717865,171.746063 
	C209.235123,174.126236 205.921875,176.717682 206.362213,178.174667 
	C208.467590,185.140701 204.015320,189.758209 201.521530,195.105591 
	C199.103867,200.289719 196.658508,205.460922 193.785248,211.574112 
	C187.478348,209.990311 178.510651,211.925659 172.554596,204.090225 
	C170.483887,201.366104 167.848312,199.931519 163.840652,201.754150 
	C159.309052,197.904373 155.392258,193.821167 151.267593,189.960007 
	C142.823761,182.055634 133.357132,175.842010 121.818764,172.713196 
	C121.294037,172.364365 120.933868,172.250107 120.192459,172.180984 
	C118.536682,172.133301 117.262146,172.040466 115.904114,171.790985 
	C115.554405,171.723602 115.288193,171.812851 114.616196,171.942688 
	C111.801308,171.795425 109.392204,171.607574 106.993835,171.002045 
	C108.056198,169.539474 109.011131,167.731339 110.176453,167.583694 
	C114.862442,166.989944 119.642189,167.133636 124.326912,166.533539 
	C126.294792,166.281448 128.900757,165.360474 129.851044,163.871826 
	C132.724731,159.370087 134.425583,154.756454 141.783539,157.669968 
	C145.205368,159.024887 147.262894,159.345795 147.146393,163.429733 
	C147.105087,164.877930 148.647186,166.371262 149.466415,167.843994 
	C150.560562,166.738098 152.022324,165.816589 152.685486,164.494507 
	C155.613724,158.656662 158.391190,152.738419 161.027359,146.762863 
	C161.559692,145.556168 161.574982,143.895493 161.262894,142.578156 
	C158.922012,132.697235 149.838379,130.735916 142.381104,127.131577 
	C139.345169,125.664207 135.880569,125.383308 136.084229,120.924149 
	C136.840744,121.001053 137.597275,121.077957 138.844696,121.410080 
	C139.548569,121.842522 139.793472,121.938179 140.070297,121.952263 
	C154.445404,125.208862 166.806625,132.687271 177.979172,141.739807 
	C189.388367,150.984070 199.779984,161.484207 210.717865,171.746063 
z"/>
<path fill="#8DCBF3" opacity="1.000000" stroke="none" 
	d="
M53.067749,244.014496 
	C52.379345,242.025146 51.411011,240.084305 51.056374,238.037140 
	C50.092186,232.471313 49.042542,227.197418 41.575947,228.895264 
	C41.349136,227.928329 41.104870,227.437576 41.225060,227.320267 
	C46.685955,221.990845 47.435875,215.199585 48.288826,208.017334 
	C48.880432,203.035721 51.739685,198.240707 54.002819,193.564133 
	C56.164989,189.096207 58.416012,184.779510 57.714870,179.478851 
	C56.742970,179.280731 56.118172,179.075912 55.482922,179.035538 
	C46.537067,178.467209 42.542133,170.968689 47.537449,163.333160 
	C49.763615,159.930374 52.979870,157.076111 56.103836,154.387848 
	C59.222141,151.704437 57.618916,148.889603 56.132008,146.928223 
	C55.186226,145.680634 52.004623,145.183014 50.269276,145.737534 
	C48.434692,146.323776 46.385010,148.284012 45.709778,150.116013 
	C41.606075,161.249939 32.526257,167.156754 22.886696,172.502197 
	C20.556694,173.794281 17.915770,174.525665 15.202723,174.890991 
	C14.961279,173.791168 14.934930,173.315231 14.908583,172.839310 
	C16.386179,170.350540 17.863773,167.861771 19.858063,165.053421 
	C20.536509,164.400528 20.698259,164.067230 20.860012,163.733917 
	C20.860014,163.733917 20.889652,163.363190 21.286911,163.133789 
	C22.070759,162.177567 22.457346,161.450775 22.843933,160.723969 
	C27.374323,155.589661 31.904709,150.455368 36.949738,145.068512 
	C37.738605,144.624557 37.923710,144.368683 38.019688,144.048325 
	C39.494671,142.800125 40.969658,141.551941 42.951431,140.065002 
	C43.727673,139.645813 43.916668,139.402786 44.025208,139.097183 
	C44.854885,138.491943 45.684563,137.886703 46.993847,137.060699 
	C47.725525,136.670517 47.906395,136.444183 48.016068,136.160950 
	C48.509766,135.853210 49.003468,135.545456 49.973190,135.041260 
	C50.711071,134.680679 50.900925,134.455795 51.018784,134.170120 
	C51.018784,134.170120 51.439545,134.032959 51.903854,133.923645 
	C52.586998,133.562698 52.805840,133.311081 53.024681,133.059448 
	C53.513378,132.776443 54.002071,132.493423 54.958496,132.037567 
	C55.685402,131.719986 55.879910,131.514175 56.009747,131.247253 
	C72.561485,122.422806 90.077637,117.429649 108.972908,117.932442 
	C114.448227,118.078133 119.922775,118.252815 125.463043,118.968758 
	C122.492546,120.210670 118.800049,119.660347 118.323601,124.536583 
	C118.244072,125.350555 114.840622,125.966438 112.915955,126.443092 
	C110.180771,127.120461 106.294930,126.667046 104.885269,128.354553 
	C102.788475,130.864624 103.542236,134.502838 106.221733,137.326553 
	C107.216965,138.375351 107.922096,140.411484 107.611626,141.726288 
	C107.418327,142.544891 105.077499,142.862991 103.695198,143.391891 
	C102.817383,143.727753 101.931389,144.042496 101.046455,144.359436 
	C92.807968,147.310135 93.364944,156.246109 90.744095,162.157700 
	C88.416580,167.407639 85.607307,170.835587 81.387314,173.131714 
	C65.260567,181.906479 57.529408,196.404846 53.648415,213.320999 
	C52.874878,216.692627 52.369122,221.972977 57.788460,224.418411 
	C57.921383,226.891830 57.960186,228.935501 57.757507,231.147675 
	C57.340584,231.865494 57.165138,232.414795 56.976376,233.352386 
	C55.664619,237.165283 54.366180,240.589890 53.067749,244.014496 
M51.145882,169.027466 
	C51.726913,170.330139 52.307945,171.632797 52.888977,172.935471 
	C54.208225,172.236435 56.085922,171.839905 56.677956,170.746933 
	C57.193218,169.795715 56.256409,168.057922 55.961254,166.667709 
	C54.459503,167.210312 52.957752,167.752899 51.145882,169.027466 
z"/>
<path fill="#87C8F1" opacity="1.000000" stroke="none" 
	d="
M57.694340,223.988663 
	C52.369122,221.972977 52.874878,216.692627 53.648415,213.320999 
	C57.529408,196.404846 65.260567,181.906479 81.387314,173.131714 
	C85.607307,170.835587 88.416580,167.407639 90.744095,162.157700 
	C93.364944,156.246109 92.807968,147.310135 101.046455,144.359436 
	C101.931389,144.042496 102.817383,143.727753 103.695198,143.391891 
	C105.077499,142.862991 107.418327,142.544891 107.611626,141.726288 
	C107.922096,140.411484 107.216965,138.375351 106.221733,137.326553 
	C103.542236,134.502838 102.788475,130.864624 104.885269,128.354553 
	C106.294930,126.667046 110.180771,127.120461 112.915955,126.443092 
	C114.840622,125.966438 118.244072,125.350555 118.323601,124.536583 
	C118.800049,119.660347 122.492546,120.210670 125.788010,119.229202 
	C127.458214,119.022064 128.868820,119.109009 130.820679,119.437950 
	C131.578613,119.849190 131.824402,119.938583 132.099304,119.948120 
	C132.849442,120.007156 133.599564,120.066185 134.834366,120.374786 
	C135.527405,120.811302 135.771194,120.915573 136.050415,120.937157 
	C136.050415,120.937157 136.058258,120.949715 136.071243,120.936928 
	C135.880569,125.383308 139.345169,125.664207 142.381104,127.131577 
	C149.838379,130.735916 158.922012,132.697235 161.262894,142.578156 
	C161.574982,143.895493 161.559692,145.556168 161.027359,146.762863 
	C158.391190,152.738419 155.613724,158.656662 152.685486,164.494507 
	C152.022324,165.816589 150.560562,166.738098 149.466415,167.843994 
	C148.647186,166.371262 147.105087,164.877930 147.146393,163.429733 
	C147.262894,159.345795 145.205368,159.024887 141.783539,157.669968 
	C134.425583,154.756454 132.724731,159.370087 129.851044,163.871826 
	C128.900757,165.360474 126.294792,166.281448 124.326912,166.533539 
	C119.642189,167.133636 114.862442,166.989944 110.176453,167.583694 
	C109.011131,167.731339 108.056198,169.539474 106.642754,171.117096 
	C96.659973,173.130569 87.216248,175.120728 78.889893,181.145081 
	C78.424057,181.492096 78.224670,181.781921 77.844498,182.349136 
	C74.788116,185.421844 71.912506,188.217194 68.673531,191.043442 
	C67.191345,193.029282 66.072525,194.984238 64.968170,196.971436 
	C64.982628,197.003708 64.928276,196.958313 64.583252,197.027023 
	C63.850029,198.106247 63.461815,199.116745 63.038773,200.339325 
	C63.003944,200.551376 62.890739,200.966003 62.679039,201.106049 
	C62.339123,201.552902 62.210907,201.859726 62.053139,202.367279 
	C62.023590,202.568008 61.896362,202.953308 61.571465,203.020691 
	C60.831314,204.731598 60.416061,206.375153 59.970299,208.338593 
	C59.846264,209.076385 59.752739,209.494278 59.339432,210.027817 
	C58.670368,212.766937 58.321095,215.390427 57.984344,218.441467 
	C57.896023,220.575592 57.795181,222.282120 57.694340,223.988663 
M114.578102,146.887299 
	C115.647415,145.572937 116.716736,144.258560 117.786049,142.944183 
	C116.263016,142.337631 114.777267,141.518570 113.196472,141.241272 
	C112.652786,141.145905 111.189148,142.713120 111.314835,142.989883 
	C111.934685,144.354675 112.946892,145.541290 114.578102,146.887299 
z"/>
<path fill="#2B4C8E" opacity="1.000000" stroke="none" 
	d="
M363.086182,120.953415 
	C367.606842,122.256126 372.127472,123.558838 376.851044,125.520523 
	C376.832245,128.988342 378.349121,129.703186 380.918182,130.099091 
	C386.310333,130.930008 387.203003,136.158752 388.604492,139.991150 
	C389.221008,141.677124 386.185730,144.753143 384.700256,147.130402 
	C383.942444,148.343216 382.616730,149.277740 382.114288,150.560059 
	C380.137573,155.604965 378.706360,160.885056 376.454041,165.794006 
	C374.485718,170.083893 371.551941,173.385681 365.852905,173.190491 
	C363.578125,173.112579 361.230682,175.156006 358.557373,176.128082 
	C344.613831,170.417770 330.721405,170.241028 317.187286,175.364548 
	C310.416870,177.927612 304.458466,182.635773 298.097717,185.964523 
	C298.753265,184.024582 299.057495,182.041397 300.212769,181.054825 
	C302.830475,178.819443 305.784607,176.936142 308.754028,175.164551 
	C312.955994,172.657608 317.051544,169.537384 321.635681,168.213272 
	C327.704987,166.460175 330.718628,163.464996 331.118073,156.937332 
	C331.285583,154.199554 332.648468,151.501221 333.654907,148.856094 
	C335.305542,144.517761 338.255188,140.305115 338.514252,135.913071 
	C338.756927,131.798462 339.535095,129.359100 343.248199,127.871353 
	C344.550873,127.349403 345.780579,126.645378 347.160583,125.967010 
	C342.533386,120.825096 341.728210,119.555084 342.001434,117.983086 
	C344.384705,118.064095 346.768005,118.145096 349.715057,118.704880 
	C352.954254,119.416496 355.629700,119.649323 358.305115,119.882156 
	C359.365967,120.016495 360.426788,120.150826 361.973145,120.567413 
	C362.658813,120.938606 362.868011,120.973183 363.086182,120.953415 
z"/>
<path fill="#2D5193" opacity="1.000000" stroke="none" 
	d="
M341.658997,117.798294 
	C341.728210,119.555084 342.533386,120.825096 347.160583,125.967010 
	C345.780579,126.645378 344.550873,127.349403 343.248199,127.871353 
	C339.535095,129.359100 338.756927,131.798462 338.514252,135.913071 
	C338.255188,140.305115 335.305542,144.517761 333.654907,148.856094 
	C332.648468,151.501221 331.285583,154.199554 331.118073,156.937332 
	C330.718628,163.464996 327.704987,166.460175 321.635681,168.213272 
	C317.051544,169.537384 312.955994,172.657608 308.754028,175.164551 
	C305.784607,176.936142 302.830475,178.819443 300.212769,181.054825 
	C299.057495,182.041397 298.753265,184.024582 297.990631,186.271866 
	C293.327271,191.396698 288.735931,195.804977 283.959076,199.933411 
	C282.501465,198.777405 281.229370,197.901230 280.277466,196.882782 
	C284.291443,191.981857 288.680420,187.590591 291.452820,182.344925 
	C293.562195,178.353836 295.561035,176.449326 300.100494,175.620544 
	C302.389923,175.202560 305.272064,171.308655 305.631256,168.678497 
	C306.121521,165.088440 302.359100,164.905273 299.414398,164.993973 
	C297.921478,165.038956 296.424164,165.078430 294.933441,165.013947 
	C293.437103,164.949203 291.946442,164.752121 290.453308,164.613037 
	C290.723267,162.893951 290.741028,161.086716 291.305756,159.470642 
	C294.157043,151.311569 297.081970,143.176315 300.135223,135.090927 
	C301.085785,132.573792 300.469696,131.179611 297.897675,130.867432 
	C294.139191,130.411240 290.355896,130.159988 286.583160,129.821381 
	C303.695587,120.676712 322.106415,117.353256 341.658997,117.798294 
z"/>
<path fill="#2B4A8C" opacity="1.000000" stroke="none" 
	d="
M323.910370,275.965973 
	C325.444733,280.319580 331.095398,282.989349 335.236206,281.579437 
	C336.489990,281.152527 338.040070,281.595734 339.454407,281.640381 
	C339.325439,283.042084 339.571564,284.624420 338.999237,285.812561 
	C337.054230,289.850311 334.691895,293.686310 332.727234,297.715546 
	C329.951874,303.407440 329.195740,309.463440 330.416809,315.674103 
	C331.115723,319.229156 330.183868,321.176208 326.406708,322.169464 
	C321.019714,323.586060 315.794434,325.617432 310.260559,327.644897 
	C295.079041,324.489899 281.515381,318.121185 269.136658,308.284607 
	C268.994598,307.446167 268.997894,307.223694 269.381226,307.006317 
	C273.589844,307.951172 277.418457,308.890900 280.971344,309.762939 
	C282.295685,311.322815 283.497009,313.627869 285.396179,314.725800 
	C287.315338,315.835144 290.017822,315.480652 292.216766,316.234894 
	C299.242340,318.644836 301.305298,316.993896 300.135132,309.713348 
	C299.925812,308.410889 300.263641,306.999420 299.946625,305.739502 
	C299.130951,302.497711 299.033875,297.525208 296.965424,296.432526 
	C290.143829,292.829041 290.873810,287.599579 291.538574,281.657654 
	C292.043304,277.146240 291.902557,272.543549 291.790924,267.987793 
	C291.687164,263.755371 291.241791,259.531342 291.246918,255.418427 
	C300.236206,265.668121 311.345642,271.969543 323.910370,275.965973 
z"/>
<path fill="#274182" opacity="1.000000" stroke="none" 
	d="
M366.347015,327.177979 
	C368.487366,321.007782 372.320343,315.941345 378.312683,312.915375 
	C382.660675,310.719666 387.689331,308.878540 388.660736,303.668121 
	C389.750183,297.824768 391.468292,293.403900 396.694000,289.568695 
	C399.099976,287.802948 398.423004,281.619537 398.722290,277.409332 
	C398.773376,276.690399 396.790192,275.371613 395.580597,275.115723 
	C393.264648,274.625824 390.265076,275.660431 390.030304,271.799164 
	C389.795258,267.934113 387.650665,263.478241 393.577972,261.060730 
	C394.969360,264.619171 396.435547,268.579742 401.303894,266.900330 
	C403.307831,266.209045 405.690735,264.888428 406.632202,263.162018 
	C409.734283,257.473572 411.452271,250.857193 415.293488,245.808044 
	C417.709351,242.632462 419.666046,237.228867 425.805878,237.764847 
	C427.087128,237.876724 429.472992,235.458801 429.860809,233.848145 
	C431.209229,228.248154 432.557220,222.496109 432.605652,216.790863 
	C432.635773,213.247009 430.196930,209.720078 429.111145,206.111877 
	C428.616425,204.467941 428.616547,202.648621 428.564941,200.903763 
	C428.476471,197.914963 428.526367,194.922165 428.506409,191.931107 
	C428.505371,191.775223 428.296356,191.562149 428.348999,191.472794 
	C432.542297,184.353287 425.066559,179.821075 424.430695,173.776260 
	C423.999084,169.673096 423.521362,165.574783 423.100250,161.019547 
	C430.869812,169.552811 435.621521,180.093033 439.078125,191.959351 
	C439.335388,193.085678 439.640991,193.534927 439.946625,193.984177 
	C440.019135,194.405563 440.091644,194.826935 439.908966,195.784225 
	C439.465698,199.677185 439.330872,203.038315 439.073914,206.390076 
	C438.839478,209.448059 439.730743,211.582840 443.300781,211.978149 
	C443.698700,212.118149 443.932251,212.170349 444.179016,212.163483 
	C444.329437,212.866318 444.479889,213.569168 444.395294,214.880432 
	C444.053467,216.335175 443.946655,217.181488 443.506470,218.092407 
	C441.524445,219.816803 441.274567,221.194870 443.971466,222.320358 
	C443.991394,223.104034 443.983887,223.552322 443.607513,224.071136 
	C441.829010,230.642517 439.768433,237.083878 439.167603,243.658630 
	C438.337158,252.746048 431.683655,257.650757 426.549194,263.730011 
	C421.888306,269.248505 415.725586,274.070801 412.921600,280.395508 
	C410.859192,285.047546 408.399872,289.291870 406.035400,293.719452 
	C404.005463,297.520599 399.973358,299.302765 398.014343,302.248535 
	C394.032043,308.236725 390.667877,314.354706 383.776764,317.416168 
	C381.871399,318.262604 379.857483,318.934021 377.829742,319.420715 
	C374.059052,320.325836 370.365173,321.183014 369.997528,326.050842 
	C368.898285,326.435852 367.799072,326.820862 366.347015,327.177979 
z"/>
<path fill="#2D5397" opacity="1.000000" stroke="none" 
	d="
M286.246033,129.862701 
	C290.355896,130.159988 294.139191,130.411240 297.897675,130.867432 
	C300.469696,131.179611 301.085785,132.573792 300.135223,135.090927 
	C297.081970,143.176315 294.157043,151.311569 291.305756,159.470642 
	C290.741028,161.086716 290.723267,162.893951 290.453308,164.613037 
	C291.946442,164.752121 293.437103,164.949203 294.933441,165.013947 
	C296.424164,165.078430 297.921478,165.038956 299.414398,164.993973 
	C302.359100,164.905273 306.121521,165.088440 305.631256,168.678497 
	C305.272064,171.308655 302.389923,175.202560 300.100494,175.620544 
	C295.561035,176.449326 293.562195,178.353836 291.452820,182.344925 
	C288.680420,187.590591 284.291443,191.981857 279.922424,196.839554 
	C272.820587,192.980057 266.393982,189.021545 260.100403,184.750397 
	C259.946686,180.569992 261.053528,177.339722 264.538025,175.256500 
	C269.449371,172.320221 271.770782,167.700134 273.091034,162.374924 
	C274.230591,157.778717 275.457458,153.204193 276.919556,147.563690 
	C274.020111,148.391830 270.938812,149.271912 267.305450,150.309692 
	C265.996094,149.500137 263.897186,148.202454 261.798309,146.904755 
	C269.835175,141.237854 277.872040,135.570923 286.246033,129.862701 
z"/>
<path fill="#28478A" opacity="1.000000" stroke="none" 
	d="
M358.916351,176.233765 
	C361.230682,175.156006 363.578125,173.112579 365.852905,173.190491 
	C371.551941,173.385681 374.485718,170.083893 376.454041,165.794006 
	C378.706360,160.885056 380.137573,155.604965 382.114288,150.560059 
	C382.616730,149.277740 383.942444,148.343216 384.700256,147.130402 
	C386.185730,144.753143 389.221008,141.677124 388.604492,139.991150 
	C387.203003,136.158752 386.310333,130.930008 380.918182,130.099091 
	C378.349121,129.703186 376.832245,128.988342 377.104156,125.731827 
	C383.933929,129.049957 390.713531,132.815735 397.745544,136.818146 
	C398.724976,139.330780 399.355072,141.644974 400.228943,143.863144 
	C400.557281,144.696548 401.325836,145.714890 402.107300,145.955597 
	C409.317902,148.176788 411.294525,155.606506 416.152710,160.180923 
	C419.466370,163.301010 414.228027,171.483231 408.343323,171.771881 
	C402.724548,172.047470 401.470093,176.159637 399.285950,179.655212 
	C397.116150,183.127823 395.168457,186.739227 393.805298,189.105820 
	C385.359528,186.839005 378.398682,184.970734 370.687775,183.059906 
	C366.263916,180.756149 362.590149,178.494965 358.916351,176.233765 
z"/>
<path fill="#213776" opacity="1.000000" stroke="none" 
	d="
M259.967346,185.063019 
	C266.393982,189.021545 272.820587,192.980057 279.602234,196.981812 
	C281.229370,197.901230 282.501465,198.777405 283.931122,200.275543 
	C276.718964,208.657272 269.349182,216.417023 261.979401,224.176758 
	C249.226181,211.011978 236.472961,197.847198 223.631653,184.332947 
	C228.160141,179.405807 232.776688,174.828125 238.055786,170.128815 
	C240.342834,171.041962 242.021561,172.001434 243.582047,173.125137 
	C249.065765,177.073929 254.508850,181.079193 259.967346,185.063019 
z"/>
<path fill="#2C5296" opacity="1.000000" stroke="none" 
	d="
M223.214401,264.302856 
	C233.546707,253.492966 243.969208,242.882874 254.970108,232.335388 
	C258.910797,234.878738 262.180908,237.499832 265.667938,239.790726 
	C267.984314,241.312515 269.640472,242.657944 268.276398,245.779251 
	C267.430237,247.715485 266.759338,249.860123 266.626343,251.950455 
	C266.284760,257.319733 262.206299,262.102051 265.483612,268.266022 
	C266.860138,270.854980 265.497864,276.508423 263.331055,278.948853 
	C260.855896,281.736511 256.220398,283.017883 252.286011,283.940948 
	C249.987900,284.480103 247.225281,283.039337 244.671646,282.489319 
	C241.222122,282.544128 241.499725,276.604797 236.585281,278.131622 
	C232.563751,274.115936 228.542206,270.100220 224.265442,265.838745 
	C223.775009,265.229553 223.539810,264.866089 223.214401,264.302856 
z"/>
<path fill="#294C8F" opacity="1.000000" stroke="none" 
	d="
M290.946838,255.303604 
	C291.241791,259.531342 291.687164,263.755371 291.790924,267.987793 
	C291.902557,272.543549 292.043304,277.146240 291.538574,281.657654 
	C290.873810,287.599579 290.143829,292.829041 296.965424,296.432526 
	C299.033875,297.525208 299.130951,302.497711 299.946625,305.739502 
	C300.263641,306.999420 299.925812,308.410889 300.135132,309.713348 
	C301.305298,316.993896 299.242340,318.644836 292.216766,316.234894 
	C290.017822,315.480652 287.315338,315.835144 285.396179,314.725800 
	C283.497009,313.627869 282.295685,311.322815 280.971344,309.762939 
	C277.418457,308.890900 273.589844,307.951172 268.989929,307.044098 
	C267.959320,307.114563 267.699982,307.152405 267.440674,307.190216 
	C266.671265,306.721466 265.901886,306.252716 264.926270,305.249817 
	C264.379974,304.541199 264.039886,304.366760 263.699829,304.192322 
	C263.699829,304.192291 263.858521,304.143524 263.737335,303.908142 
	C263.216064,303.499847 262.815979,303.326965 262.415924,303.154083 
	C260.002380,301.070526 257.588837,298.986969 254.933167,296.312134 
	C254.331268,295.521515 253.971466,295.322235 253.611664,295.122986 
	C253.317245,295.151764 253.095108,295.038605 252.839355,294.288574 
	C252.397903,293.578552 252.062363,293.363495 251.726822,293.148468 
	C251.726822,293.148468 251.875504,293.128693 251.791321,292.916901 
	C251.380325,292.525818 251.053497,292.346558 250.726654,292.167297 
	C250.726654,292.167297 250.858307,292.142853 250.929337,291.825439 
	C252.578369,290.488007 254.739059,289.821075 255.615112,288.375610 
	C257.538666,285.201752 259.711395,285.919922 261.833801,287.485992 
	C264.610779,289.535034 266.876587,292.351044 269.802734,294.100494 
	C272.198090,295.532623 275.213806,296.238525 278.012421,296.432617 
	C278.600098,296.473389 279.597260,292.914642 280.109741,290.937805 
	C280.460999,289.582764 280.610107,288.024384 280.304749,286.680695 
	C279.612396,283.633881 280.832733,282.140472 283.552185,280.957367 
	C285.232208,280.226440 287.714478,278.610168 287.723083,277.376678 
	C287.737732,275.281372 286.240814,273.083252 285.087463,271.097809 
	C283.910065,269.070984 281.689301,267.429413 281.132721,265.303131 
	C279.249542,258.108612 277.901581,250.773956 276.241760,242.989761 
	C276.203461,243.012253 277.046631,242.517029 278.204163,242.146606 
	C281.584229,245.545685 284.649933,248.819916 287.470642,252.240845 
	C287.064392,253.143219 286.903107,253.898895 286.741821,254.654587 
	C287.463898,254.199310 288.185944,253.744049 289.187134,253.390564 
	C289.959778,254.096100 290.453308,254.699860 290.946838,255.303604 
z"/>
<path fill="#2C4F91" opacity="1.000000" stroke="none" 
	d="
M277.889801,242.021790 
	C277.046631,242.517029 276.203461,243.012253 276.241760,242.989761 
	C277.901581,250.773956 279.249542,258.108612 281.132721,265.303131 
	C281.689301,267.429413 283.910065,269.070984 285.087463,271.097809 
	C286.240814,273.083252 287.737732,275.281372 287.723083,277.376678 
	C287.714478,278.610168 285.232208,280.226440 283.552185,280.957367 
	C280.832733,282.140472 279.612396,283.633881 280.304749,286.680695 
	C280.610107,288.024384 280.460999,289.582764 280.109741,290.937805 
	C279.597260,292.914642 278.600098,296.473389 278.012421,296.432617 
	C275.213806,296.238525 272.198090,295.532623 269.802734,294.100494 
	C266.876587,292.351044 264.610779,289.535034 261.833801,287.485992 
	C259.711395,285.919922 257.538666,285.201752 255.615112,288.375610 
	C254.739059,289.821075 252.578369,290.488007 250.884552,291.875244 
	C246.132385,287.751404 241.496033,283.260376 236.722473,278.450500 
	C241.499725,276.604797 241.222122,282.544128 244.671646,282.489319 
	C247.225281,283.039337 249.987900,284.480103 252.286011,283.940948 
	C256.220398,283.017883 260.855896,281.736511 263.331055,278.948853 
	C265.497864,276.508423 266.860138,270.854980 265.483612,268.266022 
	C262.206299,262.102051 266.284760,257.319733 266.626343,251.950455 
	C266.759338,249.860123 267.430237,247.715485 268.276398,245.779251 
	C269.640472,242.657944 267.984314,241.312515 265.667938,239.790726 
	C262.180908,237.499832 258.910797,234.878738 255.272980,232.197540 
	C257.118927,229.789322 259.240387,227.581558 261.739685,225.497025 
	C267.374939,231.087448 272.632355,236.554626 277.889801,242.021790 
z"/>
<path fill="#29417F" opacity="1.000000" stroke="none" 
	d="
M370.385010,326.090759 
	C370.365173,321.183014 374.059052,320.325836 377.829742,319.420715 
	C379.857483,318.934021 381.871399,318.262604 383.776764,317.416168 
	C390.667877,314.354706 394.032043,308.236725 398.014343,302.248535 
	C399.973358,299.302765 404.005463,297.520599 406.035400,293.719452 
	C408.399872,289.291870 410.859192,285.047546 412.921600,280.395508 
	C415.725586,274.070801 421.888306,269.248505 426.549194,263.730011 
	C431.683655,257.650757 438.337158,252.746048 439.167603,243.658630 
	C439.768433,237.083878 441.829010,230.642517 443.628021,224.398239 
	C444.299805,225.429016 444.582153,226.203247 444.864502,226.977478 
	C444.740570,230.321457 444.616608,233.665451 444.121552,237.535568 
	C443.809143,238.704697 443.867859,239.347702 443.926575,239.990692 
	C443.911407,240.434326 443.896240,240.877975 443.508423,241.829956 
	C442.761322,243.565674 442.386963,244.793060 442.012573,246.020447 
	C441.036926,250.271805 440.322662,254.603638 439.042999,258.761444 
	C430.931091,285.118256 414.396606,304.674164 390.321716,317.792267 
	C384.129333,321.166382 377.306000,323.382599 370.385010,326.090759 
z"/>
<path fill="#31579B" opacity="1.000000" stroke="none" 
	d="
M260.100403,184.750397 
	C254.508850,181.079193 249.065765,177.073929 243.582047,173.125137 
	C242.021561,172.001434 240.342834,171.041962 238.355057,169.978622 
	C245.716354,162.329437 253.440903,154.708817 261.481873,146.996475 
	C263.897186,148.202454 265.996094,149.500137 267.305450,150.309692 
	C270.938812,149.271912 274.020111,148.391830 276.919556,147.563690 
	C275.457458,153.204193 274.230591,157.778717 273.091034,162.374924 
	C271.770782,167.700134 269.449371,172.320221 264.538025,175.256500 
	C261.053528,177.339722 259.946686,180.569992 260.100403,184.750397 
z"/>
<path fill="#274182" opacity="1.000000" stroke="none" 
	d="
M333.452271,331.062317 
	C339.030487,329.019897 344.939667,326.358459 351.114685,325.387115 
	C355.469788,324.702057 360.185760,326.310699 365.171631,327.060364 
	C363.648315,327.801056 361.694031,328.376648 359.255859,328.765869 
	C358.514801,328.727844 358.257599,328.876282 358.000397,329.024719 
	C357.433289,329.210999 356.866150,329.397278 355.699219,329.407593 
	C354.741089,329.448944 354.382843,329.666199 354.024567,329.883484 
	C350.951508,330.267365 347.878448,330.651245 344.301025,330.810120 
	C343.534515,330.700531 343.272430,330.815948 343.010345,330.931396 
	C339.972504,331.009430 336.934662,331.087463 333.452271,331.062317 
z"/>
<path fill="#29417F" opacity="1.000000" stroke="none" 
	d="
M443.123169,211.949402 
	C439.730743,211.582840 438.839478,209.448059 439.073914,206.390076 
	C439.330872,203.038315 439.465698,199.677185 439.953430,196.101990 
	C440.864471,198.338608 441.475830,200.793365 442.001404,203.897186 
	C442.478699,205.376907 443.041809,206.207596 443.604919,207.038300 
	C443.720917,207.779037 443.836914,208.519791 443.715027,209.806976 
	C443.359131,210.885406 443.241150,211.417404 443.123169,211.949402 
z"/>
<path fill="#A8D1E8" opacity="1.000000" stroke="none" 
	d="
M7.481075,189.851151 
	C6.521645,194.401581 5.238667,199.116425 3.628613,203.941284 
	C4.586868,199.372711 5.872198,194.694138 7.481075,189.851151 
z"/>
<path fill="#29417F" opacity="1.000000" stroke="none" 
	d="
M443.944061,221.984970 
	C441.274567,221.194870 441.524445,219.816803 443.718658,218.129364 
	C444.264221,218.101715 444.692383,218.085663 444.692383,218.085663 
	C444.768860,219.115753 444.845337,220.145828 444.653198,221.558075 
	C444.384583,221.940247 443.944061,221.984970 443.944061,221.984970 
z"/>
<path fill="#A8D1E8" opacity="1.000000" stroke="none" 
	d="
M14.587997,172.950668 
	C14.934930,173.315231 14.961279,173.791168 14.987843,174.623367 
	C13.975905,176.283936 12.963754,177.588226 11.667399,178.979156 
	C12.344603,177.064545 13.306007,175.063293 14.587997,172.950668 
z"/>
<path fill="#2D5193" opacity="1.000000" stroke="none" 
	d="
M357.998230,119.639313 
	C355.629700,119.649323 352.954254,119.416496 350.142334,118.838379 
	C352.567688,118.794228 355.129486,119.095352 357.998230,119.639313 
z"/>
<path fill="#5E6E96" opacity="1.000000" stroke="none" 
	d="
M442.239868,245.766907 
	C442.386963,244.793060 442.761322,243.565674 443.418427,242.151657 
	C443.289825,243.147812 442.878479,244.330582 442.239868,245.766907 
z"/>
<path fill="#5E6E96" opacity="1.000000" stroke="none" 
	d="
M443.971466,222.320358 
	C443.944061,221.984970 444.384583,221.940247 444.605957,221.943420 
	C444.946747,223.447769 445.066162,224.948959 445.025024,226.713806 
	C444.582153,226.203247 444.299805,225.429016 443.996918,224.327698 
	C443.983887,223.552322 443.991394,223.104034 443.971466,222.320358 
z"/>
<path fill="#5E6E96" opacity="1.000000" stroke="none" 
	d="
M443.693268,206.721527 
	C443.041809,206.207596 442.478699,205.376907 441.981201,204.235107 
	C442.625061,204.750900 443.203339,205.577820 443.693268,206.721527 
z"/>
<path fill="#29417F" opacity="1.000000" stroke="none" 
	d="
M440.083557,193.813828 
	C439.640991,193.534927 439.335388,193.085678 439.003540,192.352203 
	C439.391693,192.593140 439.806091,193.118301 440.083557,193.813828 
z"/>
<path fill="#5E6E96" opacity="1.000000" stroke="none" 
	d="
M444.100525,239.757614 
	C443.867859,239.347702 443.809143,238.704697 443.965240,237.958649 
	C444.211487,238.411911 444.242981,238.968216 444.100525,239.757614 
z"/>
<path fill="#A8D1E8" opacity="1.000000" stroke="none" 
	d="
M22.547665,160.842194 
	C22.457346,161.450775 22.070759,162.177567 21.346500,162.957642 
	C21.423018,162.327423 21.837206,161.643921 22.547665,160.842194 
z"/>
<path fill="#5E6E96" opacity="1.000000" stroke="none" 
	d="
M443.300781,211.978149 
	C443.241150,211.417404 443.359131,210.885406 443.697205,210.182770 
	C444.088989,210.552841 444.260681,211.093536 444.305664,211.898865 
	C443.932251,212.170349 443.698700,212.118149 443.300781,211.978149 
z"/>
<path fill="#A8D1E8" opacity="1.000000" stroke="none" 
	d="
M9.585041,183.903564 
	C9.576534,184.488159 9.273203,185.184616 8.688645,185.972961 
	C8.701686,185.381714 8.995952,184.698593 9.585041,183.903564 
z"/>
<path fill="#5E6E96" opacity="1.000000" stroke="none" 
	d="
M444.803589,217.703888 
	C444.692383,218.085663 444.264221,218.101715 444.052032,218.064758 
	C443.946655,217.181488 444.053467,216.335175 444.362610,215.241638 
	C444.681580,215.770325 444.798187,216.546219 444.803589,217.703888 
z"/>
<path fill="#8DCBF3" opacity="1.000000" stroke="none" 
	d="
M131.986908,119.769600 
	C131.824402,119.938583 131.578613,119.849190 131.234741,119.533676 
	C131.407669,119.287399 131.663330,119.355286 131.986908,119.769600 
z"/>
<path fill="#2C4F91" opacity="1.000000" stroke="none" 
	d="
M267.612854,307.475555 
	C267.699982,307.152405 267.959320,307.114563 268.609924,307.038971 
	C268.997894,307.223694 268.994598,307.446167 268.976440,308.003113 
	C268.569458,308.145325 268.177246,307.953125 267.612854,307.475555 
z"/>
<path fill="#2C4F91" opacity="1.000000" stroke="none" 
	d="
M263.795593,304.469971 
	C264.039886,304.366760 264.379974,304.541199 264.813293,304.997620 
	C264.568146,305.102264 264.229767,304.924927 263.795593,304.469971 
z"/>
<path fill="#2C4F91" opacity="1.000000" stroke="none" 
	d="
M262.567566,303.440735 
	C262.815979,303.326965 263.216064,303.499847 263.730530,303.990845 
	C263.469666,304.115112 263.094452,303.921265 262.567566,303.440735 
z"/>
<path fill="#2C4F91" opacity="1.000000" stroke="none" 
	d="
M253.737762,295.405975 
	C253.971466,295.322235 254.331268,295.521515 254.795715,296.020782 
	C254.554855,296.110168 254.209335,295.899597 253.737762,295.405975 
z"/>
<path fill="#2C4F91" opacity="1.000000" stroke="none" 
	d="
M251.813919,293.438049 
	C252.062363,293.363495 252.397903,293.578552 252.806091,294.095154 
	C252.552826,294.173645 252.226913,293.950623 251.813919,293.438049 
z"/>
<path fill="#2C4F91" opacity="1.000000" stroke="none" 
	d="
M250.806717,292.440918 
	C251.053497,292.346558 251.380325,292.525818 251.773300,292.989685 
	C251.521896,293.087708 251.204330,292.901123 250.806717,292.440918 
z"/>
<path fill="#294486" opacity="1.000000" stroke="none" 
	d="
M358.257507,329.071564 
	C358.257599,328.876282 358.514801,328.727844 358.876007,328.729980 
	C358.824860,328.959808 358.669708,329.039093 358.257507,329.071564 
z"/>
<path fill="#8DCBF3" opacity="1.000000" stroke="none" 
	d="
M135.959351,120.741249 
	C135.771194,120.915573 135.527405,120.811302 135.200073,120.465767 
	C135.391037,120.229431 135.653412,120.308823 135.959351,120.741249 
z"/>
<path fill="#294486" opacity="1.000000" stroke="none" 
	d="
M354.351685,329.936035 
	C354.382843,329.666199 354.741089,329.448944 355.424011,329.278595 
	C355.392029,329.546539 355.035431,329.767548 354.351685,329.936035 
z"/>
<path fill="#5595D2" opacity="1.000000" stroke="none" 
	d="
M116.259232,330.966949 
	C116.273697,330.800812 116.530197,330.687042 116.879280,330.719086 
	C116.971863,330.864899 116.501266,331.019318 116.259232,330.966949 
z"/>
<path fill="#294486" opacity="1.000000" stroke="none" 
	d="
M343.256836,331.003845 
	C343.272430,330.815948 343.534515,330.700531 343.889221,330.737061 
	C343.822357,330.951447 343.662872,331.013885 343.256836,331.003845 
z"/>
<path fill="#A8D1E8" opacity="1.000000" stroke="none" 
	d="
M20.636959,163.885834 
	C20.698259,164.067230 20.536509,164.400528 20.105083,164.834381 
	C20.028244,164.635849 20.221077,164.336807 20.636959,163.885834 
z"/>
<path fill="#A8D1E8" opacity="1.000000" stroke="none" 
	d="
M2.903839,205.186172 
	C3.074236,205.148438 3.060032,205.546036 3.050062,205.744202 
	C2.874268,205.798981 2.698751,205.664230 2.554075,205.501984 
	C2.534510,205.480057 2.669832,205.320007 2.903839,205.186172 
z"/>
<path fill="#A8D1E8" opacity="1.000000" stroke="none" 
	d="
M37.788116,144.130951 
	C37.923710,144.368683 37.738605,144.624557 37.245430,144.915482 
	C37.087154,144.671097 37.263840,144.403946 37.788116,144.130951 
z"/>
<path fill="#A8D1E8" opacity="1.000000" stroke="none" 
	d="
M43.793068,139.165283 
	C43.916668,139.402786 43.727673,139.645813 43.243904,139.921112 
	C43.093307,139.678085 43.270424,139.417221 43.793068,139.165283 
z"/>
<path fill="#A8D1E8" opacity="1.000000" stroke="none" 
	d="
M47.791832,136.216858 
	C47.906395,136.444183 47.725525,136.670517 47.274136,136.933746 
	C47.122066,136.699509 47.286324,136.447906 47.791832,136.216858 
z"/>
<path fill="#2D5193" opacity="1.000000" stroke="none" 
	d="
M362.985046,120.788971 
	C362.868011,120.973183 362.658813,120.938606 362.324829,120.763985 
	C362.404907,120.441193 362.635864,120.423264 362.985046,120.788971 
z"/>
<path fill="#A8D1E8" opacity="1.000000" stroke="none" 
	d="
M7.956774,188.239166 
	C8.173674,188.177887 8.351449,188.352463 8.485493,188.555862 
	C8.507708,188.589569 8.338877,188.749161 8.071894,188.918793 
	C7.891317,188.819550 7.897171,188.652100 7.956774,188.239166 
z"/>
<path fill="#A8D1E8" opacity="1.000000" stroke="none" 
	d="
M50.791100,134.221863 
	C50.900925,134.455795 50.711071,134.680679 50.242336,134.931305 
	C50.099735,134.690475 50.275723,134.442398 50.791100,134.221863 
z"/>
<path fill="#A8D1E8" opacity="1.000000" stroke="none" 
	d="
M52.777447,133.123779 
	C52.805840,133.311081 52.586998,133.562698 52.121391,133.883148 
	C52.093155,133.697327 52.311684,133.442719 52.777447,133.123779 
z"/>
<path fill="#A8D1E8" opacity="1.000000" stroke="none" 
	d="
M55.785709,131.279938 
	C55.879910,131.514175 55.685402,131.719986 55.223186,131.939362 
	C55.095581,131.699005 55.276089,131.465195 55.785709,131.279938 
z"/>
<path fill="#8DCBF3" opacity="1.000000" stroke="none" 
	d="
M139.963760,121.768661 
	C139.793472,121.938179 139.548569,121.842522 139.211365,121.514359 
	C139.391235,121.272301 139.647934,121.346169 139.963760,121.768661 
z"/>
<path fill="#FDFDFE" opacity="1.000000" stroke="none" 
	d="
M278.204163,242.146622 
	C272.632355,236.554626 267.374939,231.087448 261.993622,225.294281 
	C261.869720,224.968323 262.064697,224.591064 262.022034,224.383911 
	C269.349182,216.417023 276.718964,208.657272 284.116669,200.555389 
	C288.735931,195.804977 293.327271,191.396698 298.025696,186.681076 
	C304.458466,182.635773 310.416870,177.927612 317.187286,175.364548 
	C330.721405,170.241028 344.613831,170.417770 358.557373,176.128082 
	C362.590149,178.494965 366.263916,180.756149 370.253296,183.109192 
	C380.024109,192.892075 387.199066,203.630508 389.391968,217.517365 
	C394.035248,246.921310 370.556580,276.110535 340.779449,277.050842 
	C335.495209,277.217712 330.178711,276.362366 324.393738,275.972504 
	C311.345642,271.969543 300.236206,265.668121 291.246948,255.418427 
	C290.453308,254.699860 289.959778,254.096100 289.075134,253.115723 
	C288.361206,252.524139 288.038422,252.309158 287.715607,252.094162 
	C284.649933,248.819916 281.584229,245.545685 278.204163,242.146622 
z"/>
<path fill="#599AD6" opacity="1.000000" stroke="none" 
	d="
M75.975868,265.146820 
	C76.707520,272.581787 83.310623,278.114014 92.498825,278.987274 
	C93.813179,279.112213 95.140312,279.158600 96.436768,279.383881 
	C96.851074,279.455841 97.185417,279.988159 98.514267,281.140625 
	C95.537018,284.205780 92.594322,287.240295 89.641762,290.265228 
	C89.413979,290.498596 88.891762,290.655975 88.884247,290.862396 
	C88.597267,298.749908 80.528679,299.292175 76.704063,303.818359 
	C74.282425,306.684174 71.931564,309.341370 67.517334,307.536896 
	C67.144043,307.384308 65.699348,309.546448 64.931480,310.747650 
	C64.086678,312.069275 63.449028,313.523285 62.632580,315.089478 
	C59.087376,309.404083 55.865242,304.236755 52.284714,299.039856 
	C47.772938,288.028534 48.691082,276.647247 49.474941,265.325500 
	C49.745102,261.423401 50.870090,257.580536 52.196075,253.356979 
	C57.510288,254.001877 62.979733,252.953094 66.139336,258.249329 
	C66.576012,258.981323 68.557755,258.791565 70.123161,259.185059 
	C72.273361,261.276672 74.124611,263.211761 75.975868,265.146820 
z"/>
<path fill="#5595D2" opacity="1.000000" stroke="none" 
	d="
M69.824219,259.028503 
	C68.557755,258.791565 66.576012,258.981323 66.139336,258.249329 
	C62.979733,252.953094 57.510288,254.001877 52.357903,253.007202 
	C52.298073,250.289886 52.667900,247.568710 53.052738,244.431015 
	C54.366180,240.589890 55.664619,237.165283 57.207218,233.365601 
	C57.451382,232.990524 57.913063,233.012833 57.924824,233.382355 
	C58.305561,235.147980 58.674541,236.544083 59.065029,238.108932 
	C59.146896,238.501465 59.264805,238.689072 59.599213,239.207947 
	C59.831787,240.102234 59.905415,240.629089 60.021374,241.274323 
	C60.063705,241.392731 60.331116,241.807037 60.528255,242.157166 
	C60.817265,243.032440 60.909130,243.557587 61.042633,244.227203 
	C61.159882,244.560104 61.276684,244.718094 61.632267,245.175385 
	C64.494644,250.012924 67.159431,254.520706 69.824219,259.028503 
z"/>
<path fill="#FEFEFE" opacity="1.000000" stroke="none" 
	d="
M70.123169,259.185059 
	C67.159431,254.520706 64.494644,250.012924 61.681572,245.005219 
	C61.449036,244.247406 61.271603,244.106552 61.000996,244.082748 
	C60.909130,243.557587 60.817265,243.032440 60.598534,242.012238 
	C60.396519,241.275879 60.232307,241.155457 59.979042,241.155930 
	C59.905415,240.629089 59.831787,240.102234 59.659851,239.025345 
	C59.495548,238.193893 59.322872,238.015518 59.043518,237.940186 
	C58.674541,236.544083 58.305561,235.147980 58.149979,233.238831 
	C58.241913,232.143585 58.120449,231.561371 57.998985,230.979172 
	C57.960186,228.935501 57.921383,226.891830 57.788460,224.418411 
	C57.795181,222.282120 57.896023,220.575592 58.253284,218.175003 
	C58.892872,214.958023 59.276039,212.435104 59.659210,209.912170 
	C59.752739,209.494278 59.846264,209.076385 60.236496,208.121948 
	C60.987587,206.041367 61.441975,204.497330 61.896362,202.953308 
	C61.896362,202.953308 62.023590,202.568008 62.267448,202.227097 
	C62.637791,201.579468 62.764271,201.272736 62.890743,200.966003 
	C62.890739,200.966003 63.003944,200.551376 63.314705,200.170212 
	C64.059738,198.845474 64.494003,197.901886 64.928268,196.958313 
	C64.928276,196.958313 64.982628,197.003708 65.250916,196.803986 
	C66.691765,194.740341 67.864326,192.876434 69.036896,191.012543 
	C71.912506,188.217194 74.788116,185.421844 78.067078,182.227737 
	C78.699074,181.581940 78.927704,181.334930 79.156342,181.087906 
	C87.216248,175.120728 96.659973,173.130569 106.632019,171.534790 
	C109.392204,171.607574 111.801308,171.795425 114.855682,171.993042 
	C115.500946,172.002823 115.987610,171.947617 115.987610,171.947632 
	C117.262146,172.040466 118.536682,172.133301 120.376617,172.399414 
	C121.289116,172.697708 121.636215,172.822739 121.983322,172.947769 
	C133.357132,175.842010 142.823761,182.055634 151.267593,189.960007 
	C155.392258,193.821167 159.309052,197.904373 163.608673,202.068054 
	C169.847885,208.641876 175.812164,215.021973 181.736328,221.439056 
	C182.833435,222.627441 183.768738,223.965210 184.830475,225.561005 
	C173.522095,237.307770 162.161942,248.727524 150.595215,260.427704 
	C141.507584,267.859589 132.219223,274.227448 119.980316,276.227844 
	C118.836281,276.492096 118.344849,276.702667 117.853409,276.913239 
	C117.853409,276.913239 117.410286,276.838715 116.952881,276.880951 
	C116.338577,276.981049 116.181671,277.038910 116.024773,277.096771 
	C111.739952,276.993469 107.455132,276.890167 102.458344,276.610992 
	C100.856445,276.362732 99.966515,276.290344 99.076584,276.217957 
	C98.665001,276.100311 98.253410,275.982697 97.391998,275.711914 
	C96.691254,275.354187 96.421608,275.325317 96.133232,275.472076 
	C95.648567,275.325134 95.163910,275.178223 94.231323,274.854492 
	C93.601700,274.465118 93.397804,274.441071 93.171715,274.605499 
	C92.695015,274.417511 92.218307,274.229523 91.188988,273.794861 
	C90.110703,273.428986 89.585030,273.309814 89.059357,273.190613 
	C84.911041,270.580017 80.762718,267.969391 76.295135,265.252808 
	C74.124611,263.211761 72.273361,261.276672 70.123169,259.185059 
z"/>
<path fill="#5595D2" opacity="1.000000" stroke="none" 
	d="
M163.181824,256.751953 
	C163.712112,251.262711 165.845276,253.743484 167.618988,254.402695 
	C167.748322,255.155731 167.877655,255.908768 168.006989,256.661804 
	C166.432037,256.810486 164.857101,256.959167 163.181824,256.751953 
z"/>
<path fill="#599AD6" opacity="1.000000" stroke="none" 
	d="
M99.321800,276.450287 
	C99.966515,276.290344 100.856445,276.362732 102.011673,276.653198 
	C101.373650,276.808411 100.470329,276.745514 99.321800,276.450287 
z"/>
<path fill="#599AD6" opacity="1.000000" stroke="none" 
	d="
M89.231934,273.401489 
	C89.585030,273.309814 90.110703,273.428986 90.802811,273.769653 
	C90.447662,273.864868 89.926086,273.738617 89.231934,273.401489 
z"/>
<path fill="#599AD6" opacity="1.000000" stroke="none" 
	d="
M118.123932,276.939209 
	C118.344849,276.702667 118.836281,276.492096 119.593369,276.359131 
	C119.370842,276.612885 118.882645,276.789032 118.123932,276.939209 
z"/>
<path fill="#599AD6" opacity="1.000000" stroke="none" 
	d="
M116.120743,277.250336 
	C116.181671,277.038910 116.338577,276.981049 116.743225,276.961731 
	C116.732887,277.134796 116.474800,277.269348 116.120743,277.250336 
z"/>
<path fill="#599AD6" opacity="1.000000" stroke="none" 
	d="
M96.278442,275.607971 
	C96.421608,275.325317 96.691254,275.354187 97.069870,275.732422 
	C96.921234,275.939362 96.663261,275.885315 96.278442,275.607971 
z"/>
<path fill="#599AD6" opacity="1.000000" stroke="none" 
	d="
M93.278717,274.698608 
	C93.397804,274.441071 93.601700,274.465118 93.850632,274.834717 
	C93.725533,274.964783 93.548149,274.898071 93.278717,274.698608 
z"/>
<path fill="#87C8F1" opacity="1.000000" stroke="none" 
	d="
M115.904114,171.790985 
	C115.987610,171.947617 115.500946,172.002823 115.261467,171.952469 
	C115.288193,171.812851 115.554405,171.723602 115.904114,171.790985 
z"/>
<path fill="#87C8F1" opacity="1.000000" stroke="none" 
	d="
M121.818764,172.713196 
	C121.636215,172.822739 121.289116,172.697708 120.757858,172.354248 
	C120.933868,172.250107 121.294037,172.364365 121.818764,172.713196 
z"/>
<path fill="#8FCCF3" opacity="1.000000" stroke="none" 
	d="
M51.300941,168.661469 
	C52.957752,167.752899 54.459503,167.210312 55.961254,166.667709 
	C56.256409,168.057922 57.193218,169.795715 56.677956,170.746933 
	C56.085922,171.839905 54.208225,172.236435 52.888977,172.935471 
	C52.307945,171.632797 51.726913,170.330139 51.300941,168.661469 
z"/>
<path fill="#A8D1E8" opacity="1.000000" stroke="none" 
	d="
M57.757507,231.147675 
	C58.120449,231.561371 58.241913,232.143585 58.138222,232.869308 
	C57.913063,233.012833 57.451382,232.990524 57.220539,232.977310 
	C57.165138,232.414795 57.340584,231.865494 57.757507,231.147675 
z"/>
<path fill="#8DCBF3" opacity="1.000000" stroke="none" 
	d="
M114.199387,146.839035 
	C112.946892,145.541290 111.934685,144.354675 111.314835,142.989883 
	C111.189148,142.713120 112.652786,141.145905 113.196472,141.241272 
	C114.777267,141.518570 116.263016,142.337631 117.786057,142.944183 
	C116.716736,144.258560 115.647415,145.572937 114.199387,146.839035 
z"/>
<path fill="#A8D1E8" opacity="1.000000" stroke="none" 
	d="
M59.339424,210.027817 
	C59.276039,212.435104 58.892872,214.958023 58.240761,217.747437 
	C58.321095,215.390427 58.670368,212.766937 59.339424,210.027817 
z"/>
<path fill="#A8D1E8" opacity="1.000000" stroke="none" 
	d="
M68.673523,191.043427 
	C67.864326,192.876434 66.691765,194.740341 65.236465,196.771713 
	C66.072525,194.984238 67.191345,193.029282 68.673523,191.043427 
z"/>
<path fill="#A8D1E8" opacity="1.000000" stroke="none" 
	d="
M61.571465,203.020691 
	C61.441975,204.497330 60.987587,206.041367 60.267002,207.802032 
	C60.416061,206.375153 60.831314,204.731598 61.571465,203.020691 
z"/>
<path fill="#A8D1E8" opacity="1.000000" stroke="none" 
	d="
M64.583252,197.027023 
	C64.494003,197.901886 64.059738,198.845474 63.349537,199.958160 
	C63.461815,199.116745 63.850029,198.106247 64.583252,197.027023 
z"/>
<path fill="#A8D1E8" opacity="1.000000" stroke="none" 
	d="
M78.889893,181.145081 
	C78.927704,181.334930 78.699074,181.581940 78.247856,181.950363 
	C78.224670,181.781921 78.424057,181.492096 78.889893,181.145081 
z"/>
<path fill="#A8D1E8" opacity="1.000000" stroke="none" 
	d="
M62.679043,201.106049 
	C62.764271,201.272736 62.637791,201.579468 62.297001,202.026367 
	C62.210907,201.859726 62.339123,201.552902 62.679043,201.106049 
z"/>
<path fill="#2B4A8C" opacity="1.000000" stroke="none" 
	d="
M287.470642,252.240845 
	C288.038422,252.309158 288.361206,252.524139 288.796021,253.013947 
	C288.185944,253.744049 287.463898,254.199310 286.741821,254.654587 
	C286.903107,253.898895 287.064392,253.143219 287.470642,252.240845 
z"/>
<path fill="#599AD6" opacity="1.000000" stroke="none" 
	d="
M59.065025,238.108932 
	C59.322872,238.015518 59.495548,238.193893 59.500904,238.657898 
	C59.264805,238.689072 59.146896,238.501465 59.065025,238.108932 
z"/>
<path fill="#599AD6" opacity="1.000000" stroke="none" 
	d="
M60.021374,241.274323 
	C60.232307,241.155457 60.396519,241.275879 60.401390,241.662109 
	C60.331116,241.807037 60.063705,241.392731 60.021374,241.274323 
z"/>
<path fill="#599AD6" opacity="1.000000" stroke="none" 
	d="
M61.042633,244.227203 
	C61.271603,244.106552 61.449036,244.247406 61.483986,244.675461 
	C61.276684,244.718094 61.159882,244.560104 61.042633,244.227203 
z"/>
</svg>